<?xml version="1.0" encoding="UTF-8"?>
<svg id="Layer_2" data-name="Layer 2" xmlns="http://www.w3.org/2000/svg" viewBox="0 0 1181.54 657.05">
  <defs>
    <style>
      .cls-1 {
        fill: #68b3ef;
      }

      .cls-2 {
        fill: #d9f6fc;
      }

      .cls-3 {
        fill: #90d1fa;
      }

      .cls-4 {
        fill: #74b9f4;
      }

      .cls-5 {
        fill: #81c6f7;
      }

      .cls-6 {
        fill: #b8e8fc;
      }
    </style>
  </defs>
  <g id="Layer_1-2" data-name="Layer 1">
    <g>
      <path class="cls-4" d="M0,134l61.17.1c-.03-7.99,7.46-2.7,9.35-4.58.6-.6-.77-3.93.88-4.26,2.86-.57,25.05-.15,26.61.86,1,.65.96,3.21,2.43,3.59,9.45,2.48,29.63-2.16,39.99-.13,1.73.34-.16,4.18,1.58,4.52,42.82.4,85.95-1.32,128.59.88l3.82,3.44h227.67c.6-8.04,5.96-2.74,11.43-4.64,1.94-.67,1.81-3.74,3.34-4.14,1.63-.42,16.49-.44,18.38-.07,1.64.33.27,3.64.88,4.26,2.47,2.49,18.76-4.28,17.99,4.59h94.96s1.58-4.52,1.58-4.52h73.35c1.73.34-.16,4.18,1.58,4.52,7.05,1.38,18.63-1.49,25.92-.13,3.75.7,2.35,4.08,5.66,4.48,3.01.36,14.65.49,17.28-.02,1.73-.34-.16-4.18,1.58-4.52,4.44-.87,44.41-.87,48.85,0,1.73.34-.16,4.18,1.58,4.52l74.79-.2,1.58,4.52c21.29-2.15,47,2.5,67.71.02,3.35-.4,2.18-4.26,5.66-4.48l63.38.13c1.73-.34-.16-4.18,1.58-4.52,9.65-1.89,26.23,2.09,35.89.2,1.73-.34-.16-4.18,1.58-4.52,5.45-1.07,14.59,1.26,20.04.2,1.73-.34-.16-4.18,1.58-4.52,2.74-.54,24.54-.54,27.24,0,1.62.33.25,3.67.88,4.25.76.71,4.31-.24,6.2.38,2.02.66,1.84,3.75,3.36,4.15,10.27,2.66,32.02-2.04,43.66-.03v151.3c-4.52,1.2-2.24-3.59-2.96-4.17-.96-.78-4.32.33-6.11-.1-1.54-.37-1.37-3.46-3.35-4.15-1.61-.56-20.76-.76-22.81-.32-1.48.32-.23,3.27-1.11,4.11-.72.69-2.99-.05-3.7.64-.8.77.01,3.28-.45,3.78-1.17,1.25-11.6-.77-12.73.4-.51.53.36,3.46-.19,3.98-.63.59-4.48-.28-7.09.97s-4.71,7.81-5.18,7.94c-3.93,1.1-19.41-.14-25.1-.09-9.65.08-28.54-1.69-36.67-.1-1.73.34.16,4.18-1.58,4.52-3.46.68-32.42.68-35.89,0-1.73-.34.16-4.18-1.58-4.52l-149.72.2c-.5-7.95-7.22-3.19-12.97-4.32-1.73-.34.15-4.18-1.58-4.52-2.55-.5-11.08.95-12.09-.07-.61-.62.76-3.93-.88-4.26-4.94-.98-13.72,1.34-18.38.13-1.51-.39-1.37-3.45-3.34-4.14-1.63-.57-12.25-.69-14.17-.32-1.73.34.15,4.18-1.58,4.52-2.57.51-11-.99-12.04.13-.46.5.35,3-.45,3.78-.71.69-2.98-.05-3.7.64-.88.84.38,3.79-1.11,4.11-9.3,1.99-26.3-2.08-35.88-.2-1.73.34.16,4.18-1.58,4.52-10.49-2.26-64.31,2.8-69.52-.43-.99-.61-1.24-5.12-5.25-4.09h-87.92c-1.73.34.16,4.18-1.58,4.52-6.21,1.21-16.71-1.41-22.92-.2-1.73.34.16,4.18-1.58,4.52-8.01,1.57-27.15-.13-36.67-.1,0-1.44-.04-2.89,0-4.33,2.34-.46,10.55.75,11.45-.16,1.26-1.29-2.76-6.12,8.74-4.16v-4.31c-2.5-.5-11.97.77-12.88-.17-.52-.54.34-3.54-.16-4.01-.89-.83-4.66.65-6.81-.51-.84-.46-5.21-7.05-6.11-7.5-2.5-1.25-5.29-.19-6.88-1.12-.7-.4-.83-2.62-1.73-3.21-1.58-1.04-16.62.11-19.21.7-1.04.24-10.26,2.6-11.63,3.07-1.93.66-1.82,3.75-3.33,4.14-7.91,2.05-24.1-1.74-32.9-.07-3.58.68-2.97,3.99-4.56,4.39-4.13,1.05-26.81-1.08-27.82-.03v4.31c1.99.42,7.69-.7,8.57.17.6.6-.77,3.93.88,4.26,5.04,1,13.56-1.2,18.59-.2,1.65.33.27,3.66.88,4.26.88.87,6.58-.25,8.57.17v4.31c-.71.74-13.75-.63-16.51-.09-1.73.34.16,4.18-1.58,4.52-3.79.74-36.42.74-40.21,0-1.73-.34.16-4.18-1.58-4.52-3.14-.61-28.43-.61-31.56,0-1.73.34.16,4.18-1.58,4.52-6.93,1.36-18.36-1.13-25.92-.22-3.31.4-1.91,3.78-5.66,4.48-7.29,1.35-18.86-1.51-25.92-.13-1.73.34.16,4.18-1.58,4.52h-115.14s-1.58-4.52-1.58-4.52l-61.82.2-1.58-4.52-62.62.09v-4.31c1.41-1.49,35.06,1.26,41,.09,1.73-.34-.16-4.18,1.58-4.52,4.8-.94,31.24,1.27,32.36.09v-4.31c-2.37-.49-10.44.79-11.4-.23-.46-.49.35-3-.45-3.78-.71-.69-2.98.05-3.7-.64-.88-.84.38-3.79-1.11-4.11-4.47-.96-15.25.18-20.82.1.17-5.03.9-3.98-3.53-4.33-2.49-.19-11.51.56-12.23-.16-.61-.61.77-3.93-.88-4.26-2.53-.5-21.81-.5-24.36,0-1.73.34.16,4.18-1.58,4.52-2.44.48-20.5.48-22.92,0-1.64-.33-.27-3.64-.88-4.26-1.01-1.02-9.54.44-12.09-.07-1-.2.34-7.14-7.99-4.42v-142.65ZM943.41,223.8c-11.87-5.48-52.09,2.89-63.58,6.83-2.43.83-4.26.88-3.75,4.23,12.27-1.74,31.04,2.33,42.43.11,1.73-.34-.16-4.18,1.58-4.52,2.48-.48,20.44-.48,22.92,0,1.73.34-.16,4.18,1.58,4.52,9.86,1.93,26.04-1.62,36.68-.11v-4.31c-.93-.97-19.84.98-23.5.03-1.51-.39-1.4-3.48-3.33-4.14-4.41-1.51-5.1.11-11.03-2.63ZM195.96,243.51c-1.27,1.37-32.58-1.04-37.46,0v4.32c.76.81,16.2-.71,19.38-.09,1.73.34-.16,4.18,1.58,4.52,3.25.63,29.76.63,33,0,1.73-.34-.16-4.18,1.58-4.52,4.12-.81,40.41-.81,44.53,0,1.73.34-.16,4.18,1.58,4.52,6.41,1.25,16.76-1.11,23.71-.11v-4.31c-.61-.65-8.59.56-10.74.1-1.47-.31-.26-3.12-1.12-4.09-.58-.66-2.63-.14-3.47-.79-1.15-.89-1.25-3.06-2.87-3.64-4.47-1.6-13.56.83-18.48-.13-1.73-.34.16-4.18-1.58-4.52-2.81-.55-24.43-.55-27.24,0-1.73.34.16,4.18-1.58,4.52-5.24,1.03-15.43-1.46-20.04-.2-1.76.48-.38,3.99-.78,4.42Z"/>
      <path class="cls-5" d="M86.45,289.62c5.56.07,16.34-1.06,20.82-.1,1.48.32.23,3.27,1.11,4.11.72.69,2.99-.05,3.7.64.8.77-.01,3.28.45,3.78.96,1.03,9.02-.25,11.4.23v4.31c-1.11,1.17-27.56-1.03-32.36-.09-1.73.34.16,4.18-1.58,4.52-5.95,1.16-39.59-1.58-41-.09v4.31s62.62-.09,62.62-.09l1.58,4.52,61.82-.2,1.58,4.52h115.14c1.73-.34-.16-4.18,1.58-4.52,7.05-1.38,18.63,1.49,25.92.13,3.75-.7,2.35-4.08,5.66-4.48,7.56-.9,18.99,1.58,25.92.22,1.73-.34-.16-4.18,1.58-4.52,3.14-.61,28.43-.61,31.56,0,1.73.34-.16,4.18,1.58,4.52,3.79.74,36.42.74,40.21,0,1.73-.34-.16-4.18,1.58-4.52,2.76-.54,15.8.84,16.51.09v-4.31c-1.99-.42-7.69.7-8.57-.17-.6-.6.77-3.93-.88-4.26-5.04-1-13.56,1.2-18.59.2-1.65-.33-.27-3.66-.88-4.26-.88-.87-6.58.25-8.57-.17v-4.31c1-1.06,23.68,1.07,27.82.03,1.59-.4.98-3.71,4.56-4.39,8.81-1.67,25,2.12,32.9.07,1.51-.39,1.39-3.48,3.33-4.14,1.37-.47,10.59-2.83,11.63-3.07,2.6-.59,17.63-1.74,19.21-.7.9.59,1.03,2.81,1.73,3.21,1.59.92,4.38-.13,6.88,1.12.9.45,5.26,7.04,6.11,7.5,2.14,1.17,5.92-.31,6.81.51.51.47-.36,3.47.16,4.01.92.94,10.38-.33,12.88.17v4.31c-11.5-1.95-7.49,2.88-8.74,4.16-.89.91-9.11-.3-11.45.16-.03,1.44,0,2.88,0,4.33-9.75.03-29.92,1.7-38.12.1-1.73-.34.16-4.18-1.58-4.52-6.41-1.25-16.76,1.11-23.71.11v4.31c11.5-1.96,7.49,2.88,8.74,4.16,1.49,1.52,35.1-1.09,40.91.07,1.65.33.28,3.66.88,4.26,1.04,1.04,7.43-.72,8.47.32.6.6-.77,3.93.88,4.26,7.32,1.46,19.89-1.64,27.24-.2,1.73.34-.15,4.18,1.58,4.52,3.91.77,10.36-1.21,14.17.12,1.97.69,1.85,3.79,3.33,4.15,2.33.56,5.61-.52,8.32,0,3.19.62,4.93,3.55,8.76,4.19,8.7,1.47,18.91-2.97,28.02-1.37,2.27-1.74.02-2.63-2.13-2.88-4.1-.48-10.95,1.95-10.84-4.31,5.8,1.91,3.67-4.12,5.12-4.43,4.81-1.02,12.45,2.45,16.48-2.08.69-3.49-2.8-2.05-5.02-2.14-4.89-.21-16.05-.89-20.12-.1-1.73.34.16,4.18-1.58,4.52-2.15.42-16.45.42-18.59,0-1.73-.34.16-4.18-1.58-4.52-11.17-2.18-30.53,2.41-41.65.2-1.65-.33-.27-3.67-.87-4.26-2.43-2.37-7.11,4.19-7.12-4.49,9.52-.03,28.66,1.67,36.67.1,1.73-.34-.16-4.18,1.58-4.52,6.21-1.21,16.71,1.41,22.92.2,1.73-.34-.16-4.18,1.58-4.52h87.92c4-1.03,4.26,3.47,5.25,4.09,5.2,3.23,59.02-1.83,69.52.43,1.73-.34-.16-4.18,1.58-4.52,9.58-1.87,26.57,2.2,35.88.2,1.48-.32.23-3.27,1.11-4.11.72-.69,2.99.05,3.7-.64.8-.77-.01-3.28.45-3.78,1.04-1.12,9.47.38,12.04-.13,1.73-.34-.16-4.18,1.58-4.52,1.92-.37,12.54-.25,14.17.32,1.96.69,1.83,3.75,3.34,4.14,4.66,1.21,13.44-1.11,18.38-.13,1.64.33.27,3.64.88,4.26,1,1.02,9.54-.44,12.09.07,1.73.34-.15,4.18,1.58,4.52,5.74,1.13,12.46-3.63,12.97,4.32l149.72-.2c1.73.34-.16,4.18,1.58,4.52,3.46.68,32.42.68,35.89,0,1.73-.34-.16-4.18,1.58-4.52,8.13-1.59,27.02.18,36.67.1,1.37,6.29-2.66,3.37-4.05,4.59-.94.83-.07,4.06-.27,4.06h-24.5v4.32h28.82c.21,0-.49-3.63.09-4.15,1.2-1.07,7.41.71,8.46-.33.6-.6-.77-3.93.88-4.26,1.89-.38,16.74-.36,18.38.07,1.52.4,1.4,3.47,3.33,4.14,1.65.56,7.95.69,9.64.25,1.52-.4,1.34-3.48,3.36-4.14,1.89-.62,5.44.33,6.2-.38.63-.59-.75-3.93.88-4.25,4.28-.86,11.4,1.04,15.71.2,1.73-.34-.15-4.18,1.58-4.52,6.02-1.18,15.71,1.04,22.27.1v80.69c-5.31,2.26-6.9-4.03-8.21-4.35-1.58-.39-12.34-.41-14.05-.07s-.28,3.71-.87,4.27c-.78.75-5.42-.27-7.56.19-.66.14-10.01,6.97-10.67,7.12-5.07,1.16-13.49-1.19-18.15.01-1.2.31-3.37,6.99-9.66,4.36v4.31c8.19-1.18,20.48,1.58,28.04.11,1.73-.34-.16-4.18,1.58-4.52,2.23-.44,17.83-.44,20.04,0,1.64.33.27,3.64.88,4.26.33.33,7.91.5,9.34.29,3.17-.48,3.4-6.44,9.3-4.44v41.79c-4.61-1.29-1.82,3.95-3.68,4.42-3.56.9-10.34-1.09-14.05-.13-1.51.39-1.38,3.45-3.34,4.14-1.56.55-12.39.7-14.16.32-1.49-.32-.23-3.27-1.11-4.11-.72-.69-2.99.05-3.7-.64-1.22-1.18,2.08-6.09-8.17-4.1-1.62.31-.25,3.67-.88,4.25-.76.71-4.29-.25-6.19.39-4.07,1.37-12.05,14.75-15.66,16.7-2.15,1.16-5.91-.31-6.81.51-.59.54.79,3.95-.86,4.28-6.56,1.3-17.81-1.5-24.36-.2-1.65.33-.27,3.64-.88,4.26-.37.38-9.33.55-10.64.27-1.48-.31-.23-3.27-1.11-4.11-.72-.69-2.98.05-3.7-.64-.88-.84.38-3.79-1.11-4.11-1.69-.36-13.93-.35-15.7,0-1.65.33-.28,3.66-.88,4.26-1.06,1.05-7.33-.78-8.42.39-.45.48.36,2.99-.45,3.77-2,1.91-2.39,2.3-4.33,4.33-.84.88-3.79-.36-4.1,1.12-2.17,10.47,4.23,7.22,4.52,8.61.72,3.53-1.82,8.95-4.77,10.37-1.96.94-4.4-.04-6.83,1.17-1.07.53-16.41,15.79-16.92,16.87-.88,1.86,0,4.04-.62,5.9-.3.91-8.28,11.28-8.46,12.06-.42,1.76.71,5.19-.15,6.07-.45.46-3.07-.38-3.85.39-.84.83.44,3.84-1.07,4.15-1.42.29-8.38.28-9.73-.07-1.84-.48-.08-4.16-7.45-4.47-8.83-.37-6.98,3.91-8.98,4.47-7.98,2.23-10.96-9.16-15.19-11.17-1.86-.88-4.04,0-5.89-.62-2.12-.71-1.89-3.74-3.4-4.13-1.42-.37-9.61-.37-11.18-.06-1.73.33.15,4.18-1.58,4.52-3.15.62-8.1-.93-11.18-.13-1.57.41-1.87,6.47-11.75,4.45-1.64-.33-.28-3.67-.87-4.26-1.06-1.05-7.33.78-8.43-.39-.45-.48.36-3.01-.44-3.78-.71-.69-2.99.05-3.7-.64-.8-.77.01-3.28-.45-3.78-1.15-1.23-10.18.74-11.3-.39-.61-.62.76-3.93-.88-4.26-1.96-.39-18.13-.37-19.82.07-1.52.39-1.4,3.47-3.33,4.14-3.03,1.05-7.11-.46-9.85.11-1.47.31-.22,3.26-1.11,4.1-.4.38-7.61,4.59-8.01,4.98-.97.93,1.44,6.31-6.47,3.99-.62-.18-8.07-7.97-9.19-9.22-2.88-3.21-3.08-2.67-4.51-4.07-.81-.79,0-3.29-.46-3.77-1.1-1.16-7.38.66-8.43-.39-.51-.51.34-3.49-.17-4-1.03-1.04-7.43.72-8.47-.32-.6-.6.77-3.93-.88-4.26-2.55-.51-11.08.95-12.09-.07-.61-.62.76-3.93-.88-4.26-6.14-1.22-16.91,1.49-22.91.2-1.46-.31-.27-3.07-1.14-4.08-.52-.6-2.65-.09-4.01-1.42-3.13-3.07-5.92-5.58-8.3-7.9-.82-.8,0-3.33-.44-3.78-.95-.98-5.44.34-7.52-.18-1.34-.34-1.41-2.9-2.53-3.49-3.37-1.78-8.43-2.53-11.86-4.12-2.19-1.01-2.19-3.67-3.47-3.99-2.05-.51-6.69.74-7.56-.12-.5-.49.35-3.5-.16-4.01-1.04-1.05-7.33.78-8.43-.38-.45-.48.36-2.99-.45-3.77-1.98-1.9-2.43-2.35-4.33-4.33-.78-.81-3.3,0-3.77-.45-1.18-1.11.73-7.25-.45-8.38-.46-.44-2.82.33-3.75-.47-.37-.31-2.55-6.79-5.02-7.94-2.17-1.01-4.84.3-6.56-.7-.66-.38-.79-2.64-1.71-3.24-3.87-2.53-18.19.42-23.73-.67-1.73-.34.16-4.18-1.58-4.52-2.25-.44-21.14-.28-22.82.31-1.86.66-1.9,3.34-2.64,3.77-1.56.9-4.12-.04-5.95.57-2.12.7-1.86,3.77-3.4,4.14-1.76.42-5.3-.67-6.12.1-.5.47.36,3.5-.16,4.02-1.05,1.06-7.32-.78-8.42.39-.45.48.36,2.99-.45,3.77-1.98,1.9-2.43,2.35-4.33,4.33-.78.82-3.29,0-3.77.45-1.05.98.54,7.74-.45,10.49-.59,1.66-2.85,1.75-3.69,2.83s.22,3.52-1.23,3.92c-1.1.31-12.78.29-14.24,0-1.73-.34.16-4.18-1.58-4.52-1.54-.3-13.06-.22-13.53.27-.52.54.34,3.54-.16,4.01-.88.82-4.65-.65-6.8.51-.51.28-7.93,7.76-8.19,8.29-1.25,2.6-.36,6.45-.96,7.1s-3.94-.74-4.25.87c-.38,1.98.9,6.77-.12,7.73-.48.45-2.99-.36-3.77.45-1.9,1.98-2.35,2.43-4.33,4.33-.81.78,0,3.29-.45,3.77-1.1,1.16-7.37-.67-8.42.39-.6.6.77,3.93-.88,4.26-1.78.35-12.48.35-14.27,0s.16-4.18-1.58-4.52c-2.1-.41-18.04-.43-20.03,0-1.48.32-.23,3.26-1.12,4.1-.4.38-7.61,4.59-8.01,4.98-.81.78,0,3.28-.46,3.77-.36.39-9.23.62-10.59.33-1.51-.31-.23-3.32-1.07-4.15s-3.85.43-4.16-1.06c-.4-1.98.92-6.75-.12-7.73-.48-.45-2.99.36-3.77-.45-1.92-2-2.28-2.38-4.33-4.33-.89-.84.36-3.78-1.12-4.1-1.89-.41-16.93-.23-18.49.32-1.86.66-1.9,3.33-2.64,3.76-1.59.92-4.38-.13-6.88,1.12-1.06.53-5.6,7.55-6.82,7.87-2.49.66-9.42-.83-10.39.16-.61.61.77,3.93-.88,4.26-2.21.44-17.8.44-20.04,0-1.73-.34.15-4.18-1.58-4.52-2.37-.47-9.68.92-10.65-.07-.61-.61.76-3.93-.88-4.26-2.21-.44-17.8-.44-20.04,0-1.73.34.15,4.18-1.58,4.52-2.57.51-10.99-.99-12.04.13-.46.49.35,2.99-.46,3.77-1.97,1.89-2.44,2.36-4.33,4.33-.78.82-3.3,0-3.77.45-1.18,1.11.73,7.16-.44,8.38-.38.4-2.62-.21-3.61.54-1.08.82-1.16,3.09-2.84,3.69-1.82.65-15.09.65-16.94,0-1.98-.69-1.81-3.79-3.35-4.15-1.77-.42-5.17.72-6.06-.16-.45-.44.38-3-.44-3.79-.4-.38-7.61-4.59-8.01-4.98-.81-.78,0-3.28-.46-3.77-.41-.44-10.71-.62-12.03-.33-1.48.32-.23,3.26-1.11,4.1-.71.68-2.95-.04-3.67.67s0,3.06-.57,3.66c-.72.74-3.68.22-5.42,1.11-1.43.72-2.31,2.72-4.01,3.25-4.22,1.32-10.1-.6-14.05.19-1.65.33-.28,3.66-.88,4.26-1.04,1.04-7.44-.71-8.47.32-.51.52.34,3.53-.16,4.01-.8.78-5.45-.31-7.59.17-1.08.24-.87,2.56-1.96,2.82-8.91,2.12-10.21-2.63-12.6-2.96-6.59-.9-17.07,1.02-15.24,8.77-6.5-2.16-18.19-.04-23.49-1.42-1.51-.39-1.37-3.45-3.34-4.14-3.83-1.34-10.14.8-13.9-.22-1.17-.31-5.08-6.5-5.77-6.78-2.3-.93-6.4.22-7.65-1.76-1.18-1.87.01-4.87-1-6.95-.27-.55-8.05-8.34-8.58-8.63-2.15-1.16-5.91.31-6.81-.51-.59-.54.78-3.97-.85-4.28-1.98-.38-6.77.9-7.74-.12-.45-.48.36-3.01-.44-3.78-.71-.69-2.98.05-3.7-.64-.88-.84.38-3.79-1.11-4.11-1.99-.43-17.92-.41-20.03,0-1.73.34.16,4.18-1.58,4.52-1.52.3-9.94.31-11.38,0s-.23-3.27-1.11-4.11c-.72-.69-2.99.05-3.7-.64-.81-.78.03-3.35-.43-3.8-.89-.88-4.3.26-6.07-.16-1.54-.36-1.38-3.47-3.35-4.15-1.58-.54-8.13-.66-9.85-.31s-.28,3.66-.88,4.26c-1.04,1.04-7.43-.72-8.47.32-.6.6.77,3.93-.88,4.26-1.5.3-14.54.31-15.67,0-.47-.13-2.58-6.66-5.19-7.94-2.5-1.22-4.89-.28-6.81-1.19-1.75-.84-12.85-13.37-13.35-14.34-1.24-2.44-5.02-.66-7.18-1.12v-72.05c10.24,1.47,25.75-1.95,35.23-.1,1.73.34-.15,4.18,1.58,4.52,2.63.52,10.92-.98,12.08.08.59.53-.11,4.15.1,4.15h63.4v-4.32s-12.98-.01-12.98-.01v-4.32h28.83c.15,0,.02-1.96.93-2.76,10.02-8.83-1.94-4.51-7.13-5.85-1.5-.39-1.37-3.47-3.33-4.14-2.65-.91-7.47-.09-10.64-.22.18-5.04.89-3.98-3.53-4.33-3.12-.25-17.25.6-17.99-.16-.52-.54.35-3.54-.16-4.01-.78-.72-4.3.28-6.14-.16-1.13-.27-.91-2.6-1.97-2.84-2.14-.49-6.79.61-7.59-.17-.5-.49.35-3.5-.16-4.01-1.03-1.03-7.45.71-8.47-.32-.51-.51.34-3.49-.17-4-1.03-1.04-7.43.72-8.47-.32-.6-.6.77-3.93-.88-4.26-1.5-.3-9.95-.31-11.38,0s-.23,3.27-1.11,4.11c-.72.69-2.99-.05-3.7.64-1.16,1.12,1.92,5.85-6.73,4.1-1.44-.29-.24-3.28-1.1-4.1-.72-.69-2.98.05-3.7-.64-.88-.84.37-3.79-1.11-4.11-3.1-.67-8.19.83-11.38.2-1.73-.34.15-4.19-1.57-4.52-2.99-.57-7.45.57-10.74.1v-67.72c2.85.27,6.56-.68,9.19.22,2.19.75,1.2,3.83,4.44,4.23,2.39.29,10.95.32,12.85-.34,2.16-.74,1.2-3.83,4.44-4.23,14.98-1.85,39.52-.09,55.53.12ZM141.12,357.51c-.98-.99-25.57-.74-27.94-.26-1.65.33-.27,3.66-.88,4.26-.88.87-6.58-.25-8.57.17v4.31c6.1.99,13.3-3.33,13.77,4.43h53.18c1.73-.34-.16-4.18,1.58-4.52,3.18-.62,18.62.9,19.39.09v-4.31c-.62-.66-9.85.55-12.19.09-1.73-.34.16-4.18-1.58-4.52s-12.46-.35-14.27,0,.16,4.18-1.58,4.52c-2.23.44-17.83.44-20.04,0-1.64-.33-.27-3.64-.88-4.26ZM722.19,369.98c-.66-.41-.8-2.62-1.72-3.22-1.54-1-25.06-1.45-28.05-.86-1.73.34.15,4.18-1.58,4.52-3.91.77-10.36-1.21-14.17.12-1.96.69-1.83,3.75-3.34,4.14-4.66,1.21-13.43-1.11-18.38-.13-1.64.33-.27,3.64-.88,4.26-.84.85-12.14-.21-15.07.16-1.99.25-4.51,1.07-2.13,2.88,8.26-.02,16.74-.37,24.84,1.55,1.27.3.59,2.56,3.15,2.89,5.1.66,12.6-1.13,17.32-.21,1.73.34-.16,4.18,1.58,4.52,1.6.31,9.79.31,11.39,0,1.73-.34-.16-4.18,1.58-4.52,2.35-.46,13.39-.23,15.08.86,1,.65.96,3.21,2.43,3.59,2.25.59,32.86.61,35.67.07,1.73-.34-.15-4.18,1.58-4.52,3.15-.62,7.78.81,11.18.07,1.17-.26.97-2.91,3.72-3.68,5.13-1.43,10.39,0,15.32-.61,2.11-.27,4.45-1.1,2.13-2.88-3.95-.61-10,1-13.51-.22-1.97-.69-1.85-3.78-3.33-4.15-2.04-.51-6.69.74-7.57-.11-.5-.49.35-3.49-.16-4.01-.9-.92-7.83.57-10.55-.37-1.96-.68-1.83-3.75-3.33-4.14s-9.6-.37-11.17-.07c-1.73.33.16,4.19-1.58,4.52-1.6.31-9.38.23-10.44-.43ZM1036.01,390.49c.17-5,.91-4-3.52-4.33-3.41-.26-8.56.76-11.32.04-1.51-.39-1.3-3.44-3.39-4.13-6.12-2.02-6.97-3.76-8.59-4.33-3.76-1.34-9.98.71-13.97-.25-1.1-.26-.89-2.58-1.97-2.83-2.14-.49-6.78.61-7.59-.17-.59-.57.79-3.94-.87-4.27-2.82-.56-28.89-.58-31.55,0-1.44.31-.27,3.02-1.16,4.05-3.4,3.94-11.24,2.32-14.61,3.46-1.93.66-1.82,3.75-3.33,4.14-3.74.98-10.11-1.16-13.95.18-1.98.69-1.81,3.78-3.35,4.15-1.76.42-5.28-.67-6.12.1-.59.54.79,3.95-.86,4.28-3.56.71-19.59-1.11-20.74.07-.52.53.34,3.48-.18,3.99-.98.99-7.79-.51-8.57.16-.39.34.4,3.96,0,4.33s-3.51-.63-4.2.17c-.56.65.31,3.52-.2,4-.84.78-4.35-.31-6.11.11-1.16.28-3.42,7.02-9.68,4.37v4.32h20.19c.21,0-.49-3.62.1-4.15,1.26-1.14,13.23.55,16.4-.08,1.73-.34-.15-4.18,1.58-4.52,2.27-.44,26.41-.54,20.82,4.41h-8.65s0,4.32,0,4.32c4.49-.66,11,.92,15.07.11,1.64-.33.27-3.64.88-4.26,1-1.02,9.54.44,12.09-.07,1.73-.34-.16-4.19,1.58-4.52,10.72-2.03,7.08,4.21,8.64,4.52s9.84.31,11.39,0c1.64-.33.27-3.64.88-4.26.97-.99,8.28.4,10.65-.07,1.73-.34-.16-4.18,1.58-4.52,2.39-.47,22.09-.49,24.35,0,1.48.32.23,3.27,1.11,4.11.72.69,2.98-.05,3.7.64.88.84-.38,3.79,1.11,4.11,2.17.46,20.61.44,22.91,0,1.73-.34-.15-4.18,1.58-4.52,2.55-.5,11.08.95,12.09-.07.61-.61-.76-3.93.88-4.26,2.33-.47,11.56.76,12.19.09v-4.31c-11.42,2.03-7.55-3.01-8.74-4.16-.65-.63-6.6-.1-8.56-.16ZM481.26,420.75c5.75-.08,11.55.07,17.3,0v-4.31c-1.99-.42-7.69.7-8.57-.17-.6-.6.77-3.93-.88-4.26-9.52-1.9-26.58,2.2-35.88.2-1.48-.32-.23-3.27-1.11-4.11-.72-.69-2.98.05-3.7-.64-.88-.84.38-3.79-1.11-4.11-5.26-1.13-14.61,1.26-20.03.2-1.73-.34.16-4.18-1.58-4.52-6.21-1.21-16.7,1.41-22.92.2-1.73-.34.16-4.18-1.58-4.52-2.59-.51-21.77-.51-24.36,0-1.73.34.15,4.18-1.58,4.52-2.37.47-9.68-.92-10.65.07-.61.62.76,3.93-.88,4.26-5.42,1.08-14.59-1.26-20.04-.2-1.73.34.16,4.18-1.58,4.52-3.32.65-18.42-.96-19.39-.1-.4.35.4,3.96,0,4.33s-3.51-.63-4.2.17c-.64.74.72,3.93-.91,4.25-4.41.88-12.12-.51-17.29-.1-4.42.35-3.71-.71-3.53,4.33-1.44-.03-2.88.03-4.32,0-5.51-3.23-13.8-.66-20.17-1.44-.74-.48-.91-2.46-2.51-2.87-1.77-.45-5.25.59-6.06-.16-.59-.55.78-3.95-.86-4.27-2.82-.56-25.87-.56-28.68,0-1.65.33-.28,3.66-.88,4.26-1.04,1.04-7.44-.71-8.47.32-.51.51.34,3.47-.18,4-1.1,1.12-11.8-.63-14.75.13-1.51.39-1.37,3.45-3.34,4.14-3.83,1.34-10.14-.8-13.91.22-1.21.33-9.54,11.2-10.75,11.53-3.72,1-10.13-.86-14.01-.1-1.74.34.15,4.18-1.58,4.52-2.97.58-15.61-.89-16.51-.1-.03,1.44,0,2.88,0,4.33-2.35.04-12.74-.63-12.98.73-.49,2.77-.86,3.46,2.12,3.61,3.6.18,7.26-.17,10.85-.01s9.13-.7,12.18-.1c1.64.32.27,3.66.87,4.26.92.92,7.83-.57,10.55.38,1.94.67,1.81,3.74,3.34,4.14,7.43,1.93,26.35-.78,35.81-.04,4.42.35,3.71-.71,3.53,4.33-3.82,1.29-8.72-2.96-7.21,4.32,4.29-.15,8.69.24,12.98,0-1.66,7.54,6.5,3.28,10.52,4.29,1.58.4.98,3.71,4.56,4.39,9.56,1.81,25.21-1.96,34.56-.13,1.73.34-.16,4.18,1.58,4.52,3.09.6,28.5.61,31.56,0,1.64-.33.27-3.64.88-4.26,1.11-1.12,11.63.76,14.87-.38,1.89-.67,1.9-3.32,2.62-3.78,2.95-1.87,8.37,2.75,6.91-4.65,2.87-.12,5.78.11,8.65,0v-4.32h-20.18c-.22,0,.87-3.97-.78-4.42-5-1.37-14.08,3.7-12.19-4.23,3.24-.06,9.9.71,12.19.1,1.64-.44.55-4.42.78-4.42h20.17c.21,0-.49-3.61.1-4.15,1.16-1.05,9.45.44,12.08-.08,1.73-.34-.15-4.18,1.58-4.52,3.73-.73,36.51-.74,40.21,0,2.42.48-2.75,3.79,5.11,4.42.05,1.44-.08,2.89,0,4.32-6.95-.23-15.58-.54-22.4,0-4.42.35-3.71-.71-3.53,4.33-3.83-.13-7.71.07-11.54,0v4.31c6.71.07,13.47-.07,20.18,0,2.87.03,5.77.06,8.65,0-.18,5.04-.89,3.98,3.53,4.33,8.1.64,35,1.45,41.79.1,2.42-.48-2.75-3.77,5.11-4.42,2.85-.24,5.8.19,8.65,0,1.41-6.56-2.81-3.22-4.08-4.57-.73-.78.09-3.37-.37-3.86-1.08-1.13-7.38.68-8.44-.37-.6-.6.77-3.93-.88-4.26-3.51-.7-10.79.16-15.06.1-1.67-7.88,6.98-2.7,11.18-4.71.75-.36,4.67-6.55,5.7-6.78,6.97-1.51,21,1.82,26.89-.26,1.86-.66,1.9-3.34,2.64-3.77,2.81-1.63,4-1.35,8.63-4.33,2.92-1.88,8.38,2.75,6.91-4.65ZM86.45,416.42c-3.59.07-7.25-.19-10.85-.01-2.98.15-2.61.84-2.12,3.61.29,1.64,10.62.31,12.98.73.37.28,3.18-.72,4.06.27.82.93-.46,3.83,1.06,4.15,1.76.37,13.87.36,15.7,0,1.73-.34-.16-4.18,1.58-4.52,4.5-.88,11.59.84,16.49.09,1.31-2.59-3.18-4.13-4.32-4.32.18-5.04.89-3.98-3.53-4.33-9.76-.77-20.33.59-30.2-.02-1.53.17-.89,3.13-.85,4.35ZM987.02,449.56c.46-.5,4.18,1.58,2.89-4.32-.87-.9-20.03.81-23.71.09-1.73-.34.15-4.18-1.58-4.52-1.58-.31-9.82-.31-11.39,0-1.65.33-.28,3.66-.88,4.26-1.04,1.04-7.44-.71-8.47.32-.51.51.34,3.49-.17,4-1.03,1.04-7.44-.71-8.47.32-.51.51.34,3.47-.18,4-1.08,1.1-13.35-.54-16.41.07-1.65.33-.27,3.64-.88,4.26-1.12,1.13-10.15-.84-11.3.39-.46.49.35,2.99-.46,3.77-.7.67-2.94-.04-3.65.68-1.14,1.14,1.19,4.55-4.69,4.69l8.67,3.6c0,1.44-.04,2.89,0,4.33,5.73-.84,14.13,1.12,19.39.1,1.73-.34-.16-4.18,1.58-4.52,6.59-1.29,17.8,1.5,24.36.2,1.65-.33.28-3.66.88-4.26,1.04-1.04,7.43.72,8.47-.32.6-.6-.77-3.93.88-4.26,3-.6,13.73,1.04,14.96-.08.59-.53-.11-4.15.1-4.15h21.61v-4.32s-12.96-.01-12.96-.01c-.64-.58.77-3.59,1.43-4.32ZM847.25,453.89c.18-5.04.89-3.98-3.53-4.33-2.66-.21-12.94.57-13.67-.16-.61-.61.77-3.93-.88-4.26-1.76-.35-12.52-.35-14.27,0-1.65.33-.28,3.66-.88,4.26-1.04,1.04-7.44-.71-8.47.32-.51.51.34,3.49-.17,4-1.04,1.04-7.27-.74-8.46.33-.58.52.11,4.15-.09,4.15h-21.61v4.32c.62.66,9.85-.56,12.18-.09,1.64.33.27,3.67.88,4.26.65.63,6.6.1,8.56.17-2.27,8.35,10.8,2.39,12.88,4.49.61.61-.77,3.93.88,4.26,2.26.45,29.92.45,31.58,0s.44-4.12.77-4.42c.29-.26,3.15.72,4.04-.29s-.43-3.82,1.08-4.13c2.93-.61,8.57.24,12.17.1,2.36-.09,4.94.25,7.2,0,4.64-.52,15.43-2.65,12.24-8.65-2.64-.07-5.29.13-7.91,0-2.38-.11-4.82-.05-7.2,0-1.44.03-2.89-.05-4.32,0,2.36-6.23-7.75-4.79-12.97-4.32Z"/>
      <path class="cls-1" d="M0,134V0h1181.54v138.33c-11.65-2.01-33.39,2.7-43.66.03-1.52-.39-1.34-3.49-3.36-4.15-1.89-.62-5.44.33-6.2-.38-.63-.59.75-3.93-.88-4.25-2.7-.54-24.5-.54-27.24,0-1.73.34.16,4.18-1.58,4.52-5.45,1.07-14.59-1.26-20.04-.2-1.73.34.16,4.18-1.58,4.52-9.65,1.89-26.23-2.09-35.89-.2-1.73.34.16,4.18-1.58,4.52l-63.38-.13c-3.48.22-2.31,4.08-5.66,4.48-20.71,2.48-46.42-2.18-67.71-.02l-1.58-4.52-74.79.2c-1.73-.34.16-4.18-1.58-4.52-4.44-.87-44.41-.87-48.85,0-1.73.34.16,4.18-1.58,4.52-2.62.51-14.27.38-17.28.02-3.31-.4-1.91-3.78-5.66-4.48-7.29-1.35-18.86,1.51-25.92.13-1.73-.34.16-4.18-1.58-4.52h-73.35s-1.58,4.52-1.58,4.52h-94.96c.77-8.87-15.52-2.1-17.99-4.59-.61-.61.77-3.93-.88-4.26-1.88-.37-16.75-.36-18.38.07-1.52.39-1.4,3.46-3.34,4.14-5.46,1.9-10.83-3.4-11.43,4.64h-227.67s-3.82-3.44-3.82-3.44c-42.64-2.21-85.78-.48-128.59-.88-1.73-.34.16-4.18-1.58-4.52-10.36-2.03-30.54,2.61-39.99.13-1.47-.38-1.43-2.94-2.43-3.59-1.56-1.01-23.75-1.43-26.61-.86-1.65.33-.28,3.66-.88,4.26-1.89,1.88-9.38-3.41-9.35,4.58l-61.17-.1Z"/>
      <path class="cls-4" d="M0,585.01c3.29.47,7.75-.67,10.74-.1,1.73.33-.15,4.21,1.57,4.52,2.42.44,5.71-.65,8.52-.03,2.18.48,3.71,2.26,5.89,2.74,2.81.62,6.12-.48,8.52-.03,1.63.3.26,3.64.87,4.26,1,1.01,9.54-.44,12.09.07,1.73.34-.15,4.18,1.58,4.52,1.6.31,9.8.31,11.39,0,1.73-.34-.16-4.18,1.58-4.52,2.12-.42,16.49-.42,18.59,0,1.65.33.28,3.66.88,4.26,1.04,1.04,7.44-.71,8.47.32.51.51-.34,3.47.18,4,.99,1.02,9.55-.44,12.09.07,1.65.33.28,3.66.88,4.26,1.04,1.04,7.44-.71,8.47.32.51.51-.34,3.49.17,4,1.03,1.04,7.44-.71,8.47.32.52.52-.34,3.52.16,4.01.99.97,6.06-.67,7.05.3.59.57-.78,3.94.86,4.27,3.32.66,8.51-.64,12.19-.11v-4.31s-8.66-.01-8.66-.01v-4.31c.62-.66,9.85.55,12.19.09,1.73-.34-.16-4.18,1.58-4.52,1.92-.38,13.79-.38,15.71,0,1.73.34-.16,4.18,1.58,4.52,2.9.57,13.91-1,14.97.07.61.61-.77,3.93.88,4.26,2.21.44,17.8.44,20.04,0,1.73-.34-.16-4.18,1.58-4.52,6.21-1.21,16.7,1.41,22.92.2,1.73-.34-.16-4.18,1.58-4.52,6.59-1.29,17.76,1.49,24.36.2,1.73-.34-.16-4.18,1.58-4.52,1.54-.3,9.9-.31,11.38,0s.24,3.31,1.05,4.17c1.29,1.36,5.5-2,4.07,4.58h-25.94c-.21,0,.48,3.63-.09,4.15-1.21,1.08-7.31-.78-8.42.4-.45.48.36,3.01-.44,3.78-.71.69-2.98-.05-3.7.64-.88.84.38,3.79-1.11,4.11-3.81.82-10.35-.98-14.26-.2-1.65.33-.27,3.66-.88,4.26-.88.87-6.58-.25-8.57.17v4.31c3.68-.53,8.85.76,12.19.11,1.73-.34-.16-4.18,1.58-4.52,5.07-.99,13.52,1.19,18.59.2,1.73-.34-.16-4.18,1.58-4.52,9.65-1.89,26.23,2.09,35.89.2,1.73-.34-.16-4.18,1.58-4.52,2.26-.44,17.78-.44,20.04,0,1.73.34-.16,4.18,1.58,4.52,4.32.84,11.4-1.04,15.71-.2,1.73.34-.16,4.18,1.58,4.52s12.46.35,14.27,0-.15-4.18,1.58-4.52c2.34-.46,11.56.75,12.19.09,1.42-6.56-2.81-3.22-4.08-4.57-.73-.78.1-3.35-.38-3.85-.96-1.02-10.32.29-12.85-.22v-4.31c1.99-.42,7.69.7,8.57-.17.6-.6-.77-3.93.88-4.26,3.48-.69,33.81-.69,37.33,0,1.73.34-.16,4.18,1.58,4.52,2.15.42,16.45.42,18.59,0,1.73-.34-.15-4.18,1.58-4.52,2.55-.5,11.08.95,12.09-.07.61-.62-.76-3.93.88-4.26s9.81-.31,11.39,0c1.73.34-.16,4.18,1.58,4.52s12.46.35,14.27,0-.16-4.18,1.58-4.52c3.57-.7,19.57,1.11,20.73-.07.61-.61-.77-3.93.88-4.26,3.06-.61,28.47-.6,31.56,0,1.73.34-.16,4.18,1.58,4.52,6.59,1.29,17.8-1.5,24.36-.2,1.64.33.27,3.64.88,4.26.97.99,8.28-.4,10.65.07,1.73.34-.16,4.18,1.58,4.52,2.99.58,15.33-1.02,16.41.07.61.61-.77,3.93.88,4.26,2.18.43,17.85.43,20.04,0,1.65-.33.28-3.66.88-4.26,1.04-1.04,7.43.72,8.47-.32.6-.6-.77-3.93.87-4.26,2.37-.47,9.67.92,10.65-.07.61-.61-.76-3.93.88-4.26,2.54-.51,11.09.95,12.09-.07.52-.53-.33-3.48.18-4,1.03-1.04,7.43.72,8.47-.32.6-.6-.77-3.93.88-4.26s12.67-.35,14.26,0c1.48.32.23,3.27,1.11,4.11.72.69,2.98-.05,3.7.64.88.84-.38,3.79,1.11,4.11,1.99.43,17.92.41,20.03,0,1.73-.34-.16-4.18,1.58-4.52,3.47-.68,32.42-.68,35.89,0,1.73.34-.15,4.18,1.58,4.52,1.6.31,9.79.31,11.39,0,1.73-.34-.16-4.18,1.58-4.52,1.9-.37,13.84-.38,15.71,0s-2.1,6.25,7.21,4.52c1.7-.32-.15-4.18,1.57-4.52,1.91-.38,13.79-.38,15.71,0,1.73.34-.16,4.18,1.58,4.52,2.55.5,21.83.5,24.36,0,1.64-.33.27-3.64.88-4.26,1.06-1.07,12.07.5,14.97-.07,1.73-.34-.15-4.18,1.58-4.52,6.59-1.29,17.76,1.49,24.36.2,1.73-.34-.16-4.18,1.58-4.52,2.81-.55,24.43-.55,27.24,0,1.73.34-.16,4.18,1.58,4.52,3.18.62,15.14-1.07,16.4.08.59.53-.11,4.15.1,4.15h20.17c.26,1.12-2.72,8.09-3.04,8.4-1.27,1.22-7.34-.65-8.4.4-1.22,1.21,2.72,6.18-8.74,4.17v4.31c4.49-.66,10.99.92,15.07.1,1.65-.33.28-3.66.88-4.26,1.04-1.04,7.43.72,8.47-.32.6-.6-.77-3.93.88-4.26s9.81-.31,11.39,0c1.73.34-.16,4.18,1.58,4.52,2.59.51,21.77.51,24.36,0,1.73-.34-.16-4.18,1.58-4.52,2.15-.42,16.45-.42,18.59,0,1.73.34-.16,4.18,1.58,4.52,2.23.44,17.83.44,20.04,0,1.64-.33.27-3.64.88-4.26.97-.99,8.28.4,10.65-.07,1.73-.34-.16-4.18,1.58-4.52,3.19-.63,8.2.82,11.39.2,1.73-.34-.15-4.18,1.58-4.52,2.55-.5,11.08.95,12.09-.07.61-.62-.76-3.93.88-4.26,5.29-1.05,14.87,1.43,19.82.13,1.47-.38,1.43-2.94,2.43-3.59,1.74-1.13,22.66-1.39,25.07-.55,1.96.69,1.83,3.75,3.34,4.14,2.63.68,10.84-.92,11.87.13.61.62-.76,3.93.88,4.26,6.17,1.23,16.75-1.43,22.92-.2,1.64.33.27,3.64.88,4.26,1.08,1.09,13.43-.52,16.41.07,1.73.34-.16,4.19,1.58,4.52,10.72,2.03,7.09-4.21,8.64-4.52,1.47-.29,8.46-.29,9.95,0,1.73.34-.16,4.18,1.58,4.52,1.52.3,9.94.31,11.38,0s.23-3.27,1.11-4.11c.72-.69,2.98.05,3.7-.64.88-.84-.38-3.79,1.11-4.11,6.14-1.32,18.77,1.73,24.32.2,1.5-.42.4-3.07,1.22-3.92,3.7-3.81,8.64-5.76,14.01-4.82v34.58c-4.61,1.29-1.82-3.96-3.68-4.42-1.5-.38-16.79-.35-18.59,0s.16,4.18-1.58,4.52c-4.32.84-11.4-1.04-15.71-.2-1.73.34.16,4.18-1.58,4.52-4.32.84-11.4-1.04-15.71-.2-1.73.34.16,4.18-1.58,4.52-2.48.48-20.44.48-22.92,0-1.73-.34.16-4.18-1.58-4.52-2.07-.41-24.94-.41-25.16.83-1.19,6.73,7.79,2.48,11.97,3.56,1.5.39,1.37,3.45,3.34,4.14,3.24,1.13,13.76-.73,14.87.38.61.61-.77,3.93.88,4.26,1.9.38,12.52.25,14.17-.32,2.17-.75,1.18-3.8,4.43-4.22,11.2-1.45,8.85,3.22,11.76,4.21,8.42,2.87,5.74-3.31,6.39-3.95,1.03-1.02,7.43.72,8.48-.31.6-.6-.77-3.93.88-4.26,4.29-.85,11.4,1.04,15.71.2,1.73-.34-.15-4.18,1.58-4.52,3.73-.73,9.52.69,13.62.1v25.94H0v-34.58c4.52,1.18,2.23-3.5,2.97-4.15,2.16-1.9,9.79,3.25,8.56-3.76-.29-1.64-9.33-.32-11.54-.73v-28.82ZM86.36,631.28c-.53-.53-13.45-.59-14.96-.27s-.28,2.99-1.16,4.05c-1.2,1.44-9.68,4.3-11.89,4.4-2.17.1-4.67-1.78-7.02-1.04-1.79.56-3.26,7.21-10.99,4.22v4.31c6.15-.64,13.64.87,19.55.11,2.52-.32,2-2.54,3.2-2.86,4.89-1.33,22.78-3.07,26.27-.8,1,.65.96,3.21,2.43,3.59,2.3.6,19.79.48,22.87.08,2.67-.35,1.89-2.69,3.06-2.96,6.81-1.61,19.91.73,27.83-1.48.2-3.36.48-2.55-2.13-2.88-4.46-.57-9.64.76-14.14-.29-2.82-.65-4.54-3.4-7.56-3.97-5.15-.98-12.41.97-17.16.04-1.73-.34.16-4.19-1.58-4.52-10.71-2.03-7.08,4.22-8.65,4.52-10.62,2.05-7.05-3.35-7.95-4.26ZM669.72,631.45c-2.02-1.26-44.73-1.14-47.68-.37-1.51.39-1.38,3.45-3.34,4.14-4.54,1.59-13.57-.86-18.49.12-1.64.33-.27,3.64-.88,4.26-1.81,1.82-14.26-2.98-12.87,3.04,1.1.84,14.63-.66,18.05-.03,3.75.7,2.35,4.08,5.66,4.48,3.52.42,23.13.59,25.71-.09,1.72-.45.42-3.78,5.95-4.45s13.34-1.64,13.14,4.52h53.18c-.12-8.99,9.6-.37,9.43-7.3-6.46,3.36-13.24-4.22-15.05-4.43-6.52-.77-27.36,1.75-31.08-.66-.92-.6-1.06-2.81-1.72-3.22ZM906.33,651.29h63.4c1.06-7.15-11.61-3.13-12.96-4.33v-2.87s30.97,0,30.97,0c1.52,0,3.02-4.91,2.15-5.76-1.8-1.75-18.91,2.09-22.7.48-1.87-.79-1.06-3.13-3.87-3.47-13.43-1.63-30.21,1.41-44.03.11v4.31s6.49,0,6.49,0c2.88.57-4.16,7.1-4.63,7.23-2.74.75-14.09-.78-14.82,0v4.32Z"/>
      <path class="cls-2" d="M0,471.18c2.17.46,5.94-1.32,7.18,1.12.5.97,11.6,13.5,13.35,14.34,1.92.91,4.31-.02,6.81,1.19,2.61,1.27,4.73,7.81,5.19,7.94,1.13.32,14.16.3,15.67,0,1.65-.33.28-3.66.88-4.26,1.04-1.04,7.43.72,8.47-.32.6-.59-.77-3.93.88-4.26s8.27-.23,9.85.31c1.97.68,1.8,3.79,3.35,4.15,1.77.42,5.17-.72,6.07.16.45.45-.38,3.02.43,3.8.71.69,2.98-.05,3.7.64.88.84-.38,3.79,1.11,4.11s9.86.29,11.38,0c1.73-.34-.16-4.18,1.58-4.52,2.11-.41,18.04-.43,20.03,0,1.48.32.23,3.27,1.11,4.11.72.69,2.99-.05,3.7.64.81.78,0,3.3.44,3.78.96,1.02,5.76-.25,7.74.12,1.62.31.26,3.74.85,4.28.9.82,4.65-.65,6.81.51.54.29,8.32,8.09,8.58,8.63,1.01,2.08-.19,5.08,1,6.95,1.25,1.98,5.35.83,7.65,1.76.69.28,4.6,6.47,5.77,6.78,3.77,1.01,10.08-1.13,13.9.22,1.97.69,1.83,3.74,3.34,4.14,5.3,1.38,16.99-.74,23.49,1.42-1.84-7.75,8.64-9.67,15.24-8.77,2.39.33,3.69,5.08,12.6,2.96,1.09-.26.89-2.58,1.96-2.82,2.14-.49,6.79.6,7.59-.17.5-.49-.35-3.5.16-4.01,1.03-1.03,7.43.72,8.47-.32.6-.6-.77-3.93.88-4.26,3.95-.79,9.83,1.13,14.05-.19,1.69-.53,2.58-2.53,4.01-3.25,1.74-.88,4.7-.37,5.42-1.11.58-.6-.17-2.92.57-3.66s2.96,0,3.67-.67c.88-.84-.37-3.79,1.11-4.1,1.32-.28,11.62-.11,12.03.33.46.49-.36,2.99.46,3.77.4.38,7.61,4.59,8.01,4.98.82.79-.01,3.34.44,3.79.9.88,4.3-.25,6.06.16,1.54.36,1.37,3.46,3.35,4.15,1.85.64,15.12.64,16.94,0,1.68-.6,1.75-2.86,2.84-3.69.99-.75,3.23-.15,3.61-.54,1.17-1.22-.74-7.26.44-8.38.47-.45,2.99.36,3.77-.45,1.89-1.97,2.36-2.44,4.33-4.33.81-.78,0-3.27.46-3.77,1.05-1.12,9.46.38,12.04-.13,1.73-.34-.15-4.18,1.58-4.52,2.23-.44,17.82-.44,20.04,0,1.64.33.27,3.64.88,4.26.97.99,8.28-.4,10.65.07,1.73.34-.16,4.18,1.58,4.52,2.23.44,17.82.44,20.04,0,1.65-.33.27-3.64.88-4.26.98-.99,7.9.5,10.39-.16,1.23-.33,5.77-7.35,6.82-7.87,2.5-1.25,5.28-.19,6.88-1.12.74-.43.78-3.11,2.64-3.76,1.56-.55,16.6-.73,18.49-.32,1.48.32.23,3.26,1.12,4.1,2.05,1.95,2.41,2.33,4.33,4.33.78.81,3.3,0,3.77.45,1.04.98-.28,5.75.12,7.73.3,1.49,3.32.22,4.16,1.06s-.44,3.84,1.07,4.15c1.37.29,10.23.06,10.59-.33.46-.49-.36-2.99.46-3.77.4-.38,7.61-4.59,8.01-4.98.89-.84-.36-3.78,1.12-4.1,1.98-.43,17.92-.41,20.03,0,1.73.34-.16,4.18,1.58,4.52s12.49.35,14.27,0c1.65-.33.28-3.66.88-4.26,1.06-1.05,7.33.78,8.42-.39.45-.48-.36-2.99.45-3.77,1.98-1.9,2.43-2.35,4.33-4.33.78-.81,3.29,0,3.77-.45,1.02-.97-.26-5.76.12-7.73.31-1.6,3.67-.24,4.25-.87s-.29-4.5.96-7.1c.25-.52,7.67-8.01,8.19-8.29,2.15-1.16,5.92.31,6.8-.51.51-.47-.36-3.47.16-4.01.47-.48,11.99-.57,13.53-.27,1.73.34-.16,4.18,1.58,4.52,1.46.29,13.14.3,14.24,0,1.46-.41.4-2.83,1.23-3.92s3.09-1.17,3.69-2.83c.98-2.75-.6-9.52.45-10.49.49-.45,2.99.36,3.77-.45,1.9-1.98,2.35-2.43,4.33-4.33.81-.78,0-3.29.45-3.77,1.1-1.16,7.38.67,8.42-.39.52-.52-.35-3.55.16-4.02.82-.77,4.36.33,6.12-.1,1.54-.37,1.28-3.44,3.4-4.14,1.83-.6,4.39.34,5.95-.57.74-.43.78-3.11,2.64-3.77,1.67-.59,20.57-.75,22.82-.31,1.73.34-.16,4.18,1.58,4.52,5.54,1.08,19.86-1.86,23.73.67.92.6,1.05,2.86,1.71,3.24,1.73,1,4.39-.31,6.56.7,2.47,1.14,4.65,7.62,5.02,7.94.93.8,3.29.03,3.75.47,1.18,1.13-.73,7.27.45,8.38.48.45,2.99-.36,3.77.45,1.9,1.98,2.35,2.43,4.33,4.33.81.78,0,3.29.45,3.77,1.1,1.16,7.38-.66,8.43.38.51.52-.34,3.53.16,4.01.87.85,5.51-.4,7.56.12,1.28.32,1.29,2.98,3.47,3.99,3.43,1.59,8.49,2.34,11.86,4.12,1.11.59,1.18,3.15,2.53,3.49,2.08.52,6.57-.8,7.52.18.44.45-.37,2.98.44,3.78,2.38,2.32,5.17,4.83,8.3,7.9,1.36,1.34,3.49.82,4.01,1.42.87,1.01-.33,3.76,1.14,4.08,6,1.29,16.76-1.42,22.91-.2,1.64.33.27,3.64.88,4.26,1.01,1.02,9.54-.44,12.09.07,1.65.33.28,3.66.88,4.26,1.04,1.04,7.44-.71,8.47.32.51.51-.34,3.49.17,4,1.04,1.05,7.32-.78,8.43.39.45.48-.36,2.98.46,3.77,1.43,1.4,1.63.86,4.51,4.07,1.12,1.24,8.56,9.03,9.19,9.22,7.91,2.32,5.5-3.06,6.47-3.99.4-.38,7.61-4.6,8.01-4.98.89-.85-.36-3.8,1.11-4.1,2.74-.57,6.82.94,9.85-.11,1.94-.67,1.81-3.75,3.33-4.14,1.69-.44,17.86-.46,19.82-.07,1.64.33.27,3.64.88,4.26,1.12,1.13,10.15-.84,11.3.39.46.49-.35,3,.45,3.78.71.69,2.99-.05,3.7.64.81.78,0,3.3.44,3.78,1.1,1.16,7.37-.67,8.43.39.59.59-.76,3.92.87,4.26,9.88,2.02,10.18-4.04,11.75-4.45,3.08-.8,8.03.75,11.18.13,1.73-.34-.16-4.19,1.58-4.52,1.57-.3,9.75-.3,11.18.06,1.5.39,1.27,3.42,3.4,4.13,1.86.62,4.04-.26,5.89.62,4.22,2.01,7.21,13.4,15.19,11.17,2-.56.15-4.84,8.98-4.47,7.38.31,5.61,4,7.45,4.47,1.35.35,8.31.36,9.73.07,1.51-.31.23-3.32,1.07-4.15.78-.77,3.4.08,3.85-.39.87-.89-.26-4.31.15-6.07.18-.77,8.16-11.15,8.46-12.06.62-1.85-.26-4.04.62-5.9.51-1.08,15.85-16.34,16.92-16.87,2.43-1.21,4.87-.23,6.83-1.17,2.96-1.42,5.49-6.83,4.77-10.37-.28-1.39-6.69,1.86-4.52-8.61.31-1.48,3.26-.23,4.1-1.12,1.94-2.03,2.33-2.41,4.33-4.33.81-.78,0-3.29.45-3.77,1.1-1.16,7.37.67,8.42-.39.6-.6-.77-3.93.88-4.26,1.77-.35,14.01-.37,15.7,0,1.48.32.23,3.27,1.11,4.11.72.69,2.98-.05,3.7.64.88.84-.37,3.79,1.11,4.11,1.31.28,10.27.11,10.64-.27.61-.61-.77-3.93.88-4.26,6.55-1.3,17.8,1.5,24.36.2,1.64-.33.27-3.74.86-4.28.9-.82,4.65.65,6.81-.51,3.61-1.95,11.59-15.34,15.66-16.7,1.9-.64,5.42.32,6.19-.39.62-.58-.75-3.94.88-4.25,10.25-1.99,6.95,2.93,8.17,4.1.71.69,2.98-.05,3.7.64.88.84-.38,3.79,1.11,4.11,1.77.38,12.6.23,14.16-.32,1.96-.69,1.83-3.75,3.34-4.14,3.71-.96,10.48,1.03,14.05.13,1.86-.47-.94-5.71,3.68-4.42v30.26c-8.33-2.72-6.99,4.22-7.99,4.42-3.92.78-10.33-.97-14.27-.2-1.73.34.16,4.18-1.58,4.52-2.98.58-15.35-1.02-16.41.06-.52.53.33,3.52-.17,4.01-1,.98-6.07-.79-8.28.46-1.01.57-3.17,6.97-7.06,8.05-2.74.76-5.59-.18-8.08.31-1.2.24-1.09,3.68-4.74,3.86-3.39.17-7.32-2.2-11.21-.78-1.61.59-1.72,2.75-2.87,3.65-.84.65-2.9.14-3.47.79-.79.89-.01,3.28-.46,3.76-1.18,1.26-11.6-.77-12.73.4-.51.53.36,3.46-.19,3.97-.64.6-4.5-.29-7.1.96-1.21.58-4.96,7.05-6.7,7.6-3.21,1.02-7.01-.39-9.82.15-1.63.32-.26,3.64-.87,4.26-1.01,1.02-9.54-.44-12.09.07-1.65.33-.28,3.67-.87,4.26-1.07,1.06-7.13-.81-8.4.41-.32.31-3.57,7.88-3.04,8.39,8.61,2.7,6.87-4.19,8-4.41,2.55-.51,11.08.95,12.09-.07.61-.62-.76-3.93.88-4.26,1.34-.27,11.76-.34,12.19.09.47.48-.35,6.86-.01,8.66,8.61,2.67,6.87-4.2,8-4.43,1.71-.34,15.81-.28,16.37.32.47.5-.36,3.06.41,3.83.83.84,3.85-.44,4.15,1.07,2.28,11.09-2.31,6.59-7.76,7.88-1.09.26-.89,2.57-1.97,2.82-4.56,1.08-11.16-2.14-14.85,2.21-.83,4.33,6.27,1.17,7.2,2.13.46.48-.32,6.86,0,8.65h-41.79c-.22,0,.87-3.97-.78-4.42-2.87-.78-8.76.72-12.2.1-1.6,7.77,5.95.87,4.33,8.64h-20.17c-.21,0,.49,3.61-.1,4.15-1.16,1.05-9.45-.44-12.08.08-1.73.34.15,4.18-1.58,4.52-4.98.97-13.67-1.32-18.38-.13-1.59.4-.98,3.71-4.56,4.39-3.13.59-17.38-.75-18.07-.03-1.6,7.77,5.95.87,4.33,8.64h-30.26c-.21,0,.49-3.61-.1-4.15-1.13-1.02-8.21.4-10.64-.08-1.73-.34.16-4.18-1.58-4.52-2.57-.51-11,.99-12.04-.13-.46-.5.35-3-.45-3.78-.71-.69-2.98.05-3.7-.64-.88-.84.38-3.79-1.11-4.11-1.18-.25-10.46-.25-11.39,0-1.79.5-.29,3.92-.79,4.42-3.7,3.68-4.31-3.74-4.62-4.02-1.91-1.7-1.75-1.06-4.56-4-5.83-6.09-7.2-3.28-10.67-5.29-.74-.43-.78-3.12-2.64-3.77-1.38-.48-10.28-.59-10.65-.21-3.22,3.31,5.4,5.35,4.32,8.63-8.62.1-17.31-.11-25.93,0,0,1.44.04,2.89,0,4.33-.73.65-8.51-.54-10.75-.1-1.73.34.16,4.18-1.58,4.52-3.34.65-8.5-.63-12.19-.11v-4.31c1.99-.42,7.69.7,8.57-.17.6-.6-.77-3.93.88-4.26,3.51-.7,10.79.15,15.06.1,0-1.44.04-2.89,0-4.33h-57.65s2.89-8.64,2.89-8.64c-.62-.63-8.16.61-10.48,0-1.22-.33-5.32-6.93-6.41-7.16-4.51-.98-11.16.9-15.47.05-1.73-.34.15-4.18-1.58-4.52-2.34-.46-14.73-.41-17.27-.02-2.75.42-4.06,5.08-7.95,6.54-2.27.85-6.53.5-7.02.97-.57.54.3,3.44-.2,3.96-.91.95-7.82-.56-10.54.39-1.96.68-1.85,3.78-3.32,4.15-2.06.51-6.61-.79-7.54.16-.46.47.38,3.08-.36,3.87-1.27,1.35-5.5-1.99-4.08,4.57h8.66s0,4.33,0,4.33h-37.46c-.22,0,.87,3.97-.78,4.42-5,1.37-14.08-3.69-12.19,4.23-13.93-.43-6.18-1.63-8.65-4.32,6.25,1.87,3.4-4.06,5.1-4.42,1.94-.41,6.87.86,7.78-.06.51-.51-.34-3.49.17-4,1.03-1.04,7.43.72,8.47-.32.6-.6-.77-3.93.88-4.26,3.17-.63,8.2.82,11.39.2,1.73-.34-.15-4.18,1.58-4.52,2.15-.42,10.19.71,10.74.11.25-.28-.5-4.59.8-7.2.53-1.07,15.76-16.41,16.84-16.92,3.54-1.71,10.62.8,14.62-.6,1.97-.69,1.84-3.76,3.33-4.14s8.01-.37,9.52,0c1.95.47,1.67,5.16,4.59,4.37,1.51-5.23,8.28-5.36,12.91-4.44,1.65.33.28,3.66.88,4.26,1.04,1.04,7.44-.71,8.47.32.51.51-.34,3.47.18,4,1.15,1.17,17.18-.64,20.74.06,1.64.33.27,3.73.86,4.28.93.86,4.85-.67,6.86.45.73.4,1.57,4.01,2.43,4.01h48.27v-4.32c-7.71,3.7-14.2-11.44-18.21-12.72-2.86-.91-9.52.48-10.51-.42-.58-.52.11-4.15-.09-4.15h-21.61v-4.32s12.98-.01,12.98-.01v-4.32h-46.12c-.21,0,.49-3.61-.1-4.15-2.55-2.31-14.03,3.98-13.66-4.6l-59.06.06c-2.96-.21-2.99,3.99-4.56,4.39-4.71,1.19-13.4-1.1-18.38-.13-1.73.34.16,4.18-1.58,4.52-1.92.38-13.79.38-15.71,0-1.73-.34.16-4.18-1.58-4.52-3.8-.74-36.41-.74-40.21,0-1.73.34.16,4.18-1.58,4.52-3.94.77-10.33-.97-14.27-.2-1.73.34.15,4.18-1.58,4.52-2.55.5-11.1-.94-12.09.07-.52.53.33,3.48-.18,4-1.03,1.04-7.44-.71-8.47.32-.51.51.34,3.49-.17,4-1.03,1.04-7.43-.72-8.47.32-.6.6.77,3.93-.88,4.26-3.89.78-10.38-1.22-14.17.12-1.89.67-1.92,3.38-2.62,3.79-1.74,1-4.43-.32-6.57.69-1.49.69-4.87,7.69-8.21,8.3-1.5.28-8.88.25-9.32-.19-.61-.62.76-3.92-.88-4.25-3.18-.63-19.36-.48-23.04-.02-2.99.37-3.11,6.69-12.84,4.54-1.48-.32-.24-3.27-1.11-4.1-.72-.69-2.98.05-3.7-.64-.88-.84.37-3.79-1.11-4.11-3.1-.67-8.19.83-11.38.2-1.73-.34.15-4.18-1.58-4.52-1.9-.37-13.83-.38-15.71,0-1.64.33-.27,3.64-.88,4.26-1.06,1.07-12.07-.5-14.97.07-1.73.34.15,4.18-1.58,4.52-2.55.5-11.08-.95-12.09.07-.61.62.76,3.93-.88,4.26-6.51,1.3-17.66-1.58-24.13-.05-.9.21-.84,1.96-2.18,2.68-1.94,1.05-6.76-.41-6.04,4.47,1.25,1.05,12.34-2.61,11.51,4.32-8.58-2.7-6.86,4.2-7.99,4.43-2.54.51-11.1-.95-12.09.07-.52.53.33,3.48-.18,4-1.03,1.04-7.43-.72-8.47.32-.6.6.77,3.93-.88,4.26-2.55.51-11.08-.95-12.09.07-.6.61.76,3.92-.88,4.25s-8.29.23-9.85-.31c-.79-.28-11.79-8.22-13.08-8.47-2.03-.38-11-.44-12.95-.06-1.73.34.15,4.18-1.58,4.52-4.32.84-13.56-2.84-10.22,3.82,1.88,3.74,5.68,4.4,6.36,5.06.82.8,0,3.27.47,3.76.51.54,7.96.51,8.41.06.61-.61-.76-3.92.88-4.25,1.88-.38,13.81-.37,15.71,0,1.73.34-.16,4.18,1.58,4.52s12.46.35,14.27,0-.16-4.18,1.58-4.52c9.57-1.87,26.58,2.2,35.88.2,1.48-.32.23-3.25,1.12-4.1,2.67-2.54,9.66-6.76,12.33-9.3.89-.84-.36-3.78,1.12-4.1,2.87-.62,27.09-.53,30.23.07,3.59.68,2.99,4.03,4.55,4.4,2.1.5,6.43-.81,7.51.18.37.34-.09,2.5.63,3.51,1.04,1.46,6.05,4.69,6.33,5.26,1.7,3.54-.42,12.52.39,16.95-10.9,1.95-7.38-2.48-8.96-4.01-.71-.68-2.98.05-3.69-.64-.79-.77.03-3.29-.46-3.77-.81-.8-4.26.16-6.15-.44-2.2-.7-1.14-3.71-4.48-4.22-7.95-1.21-3.85,4.12-5.87,4.53-2.55.51-11.08-.95-12.09.07-.61.61.77,3.94-.88,4.26-10.67,2.06-7.1-4.22-8.65-4.52-10.67-2.06-7.11,4.22-8.64,4.52-9.65,1.89-26.23-2.08-35.89-.2-1.73.34.16,4.18-1.58,4.52-22.65-2.27-49.99,2.66-72.03.02-3.31-.4-1.91-3.78-5.66-4.48-3.12-.58-22.92-.65-25.92-.06-1.73.34.16,4.18-1.58,4.52-3.41.67-32.51.67-35.89,0-1.64-.33-.27-3.64-.88-4.26-1-1.02-9.54.43-12.09-.07-1.73-.34.16-4.18-1.58-4.52-2.92-.57-13.83,1.04-14.92-.13-.46-.49.35-3-.45-3.78-.71-.69-2.99.05-3.7-.64-.81-.78,0-3.3-.44-3.78-1.11-1.17-7.27.73-8.38-.45-.45-.48.36-3.01-.44-3.78-.71-.69-2.98.05-3.7-.64-.88-.84.38-3.79-1.11-4.11-2.45-.52-17.8-.16-19.4.87-1.68,1.09.15,3.7-5.02,3.7s-3.46-3.39-5.93-4.25c-3.02-1.06-7.1.46-9.85-.11-1.46-.3-.25-3.12-1.12-4.09-.58-.66-2.63-.14-3.47-.79-1.15-.89-1.26-3.07-2.87-3.64-3-1.07-7.05.41-9.85-.13-1.64-.32-.27-3.71-.86-4.27-.92-.89-5.66.68-8.23-.53-.31-.15-4.56-4.72-4.66-5.05-.48-1.62.56-3.78-.37-5.76-.29-.62-9.73-8.88-10.4-9.01-2.9-.54-23.26-.64-25.9-.08-1.48.32-.23,3.27-1.11,4.11-.72.69-2.98-.05-3.7.64-.88.84.37,3.79-1.1,4.11-2.72.58-6.79-.8-9.78-.09-1.12.27-.98,2.85-1.76,2.94-2.87.33-4.65-2.5-7.19-2.9s-15.08-.68-17.15-.16c-1.85.46.94,5.71-3.68,4.42v-37.46c2.89-1.01,2.66,2.59,3.87,2.86,1.61.35,11.79.44,11.99-.7,1.1-6.23-4.12-2.77-7.87-3.5-.98-.19.33-7.14-7.99-4.42v-20.17ZM662.82,471.18h-21.61c-.22,0,.86,3.97-.78,4.42-2.78.76-8.08-.92-11.18-.13-1.59.4-.98,3.71-4.56,4.39-2.59.49-11.54-.67-12.29-.03,1.04,9.53,14.02,8.85,18.7,12.32,1.56,1.16,1.27,3.52,1.46,3.52h25.94c.5-4.81.25-4.64-4.33-4.33-.02-6.79,7.72-3.41,11.96-4.36.96-.21,1.02-2.11,1.49-2.3,2.28-.94,5.04-.38,6.7-2.72.69-3.49-2.8-2.05-5.01-2.14-3.6-.15-7.24.12-10.83,0-1.74-5.66,4.57-3.82,4.33-8.64Z"/>
      <path class="cls-3" d="M641.2,567.72c17.94.55,36-.49,53.97.1-.03-7.99,7.46-2.7,9.35-4.58.6-.6-.77-3.93.88-4.26,3.87-.77,10.31,1.08,14.05.13,1.59-.4.98-3.71,4.56-4.39,2.35-.45,15.01-.51,17.27-.06,1.73.34-.16,4.18,1.58,4.52,8.5,1.66,23.11-1.88,31.56-.2,1.65.33.28,3.66.88,4.26,1.04,1.04,7.43-.72,8.47.32.6.6-.77,3.93.88,4.26,2.55.51,11.08-.95,12.09.07.61.62-.76,3.93.88,4.26,3.7.74,36.47.73,40.21,0,1.73-.34-.15-4.18,1.58-4.52,1.6-.31,9.79-.31,11.39,0,1.73.34-.16,4.18,1.58,4.52,2.57.51,11-.99,12.04.13.46.5-.35,3,.45,3.78.71.69,2.98-.05,3.7.64.88.84-.38,3.79,1.11,4.11,2.89.62,13.87-1.04,14.96.06.61.61-.77,3.93.88,4.26,5.42,1.08,14.59-1.26,20.04-.2,1.73.34-.16,4.18,1.58,4.52,3.8.74,36.41.74,40.21,0,1.73-.34-.16-4.18,1.58-4.52,6.21-1.21,16.7,1.41,22.92.2,1.73-.34-.16-4.18,1.58-4.52,4.32-.84,11.4,1.04,15.71.2,1.73-.34-.15-4.18,1.58-4.52,3.19-.63,8.22.83,11.39.2,1.65-.33.28-3.66.88-4.26,1.04-1.04,7.43.72,8.47-.32.6-.6-.77-3.93.88-4.26,1.78-.35,12.48-.35,14.27,0s-.15,4.18,1.58,4.52c1.58.31,9.82.31,11.39,0,1.65-.33.28-3.66.88-4.26,1.04-1.04,7.44.71,8.47-.32.51-.51-.34-3.47.18-4,.42-.43,10.78-.55,12.08-.27,1.48.32.23,3.27,1.11,4.11.72.69,2.99-.05,3.7.64.8.77-.01,3.28.45,3.78.36.39,9.3.58,10.6.33,1.64-.32.27-3.64.88-4.26,1.01-1.02,9.54.44,12.09-.07,1.65-.33.28-3.66.88-4.26,1.04-1.04,7.43.72,8.47-.32.6-.6-.77-3.93.88-4.26,2.55-.51,11.08.95,12.09-.07.61-.61-.76-3.94.88-4.26,1.52-.29,8.31-.29,9.74.07,1.58.39.99,3.72,4.55,4.39,4,.75,9.48-.56,13.74-.04-.33.3.9,3.96-.77,4.42-2.78.76-8.27-.82-11.4-.2-1.73.34.15,4.18-1.58,4.52-2.16.42-10.16-.71-10.75-.09-1.15,6.3,2.14,4.07,7.21,4.32-.17,5.03-.9,3.98,3.53,4.33,3.05.24,10.42.59,12.97.09,1.73-.34-.15-4.18,1.58-4.52,2.55-.5,11.08.95,12.09-.07.61-.62-.76-3.93.88-4.26,7.12-1.42,18.83,1.23,26.59.1v24.5c-5.37-.94-10.31,1.01-14.01,4.82-.82.85.28,3.5-1.22,3.92-5.55,1.53-18.17-1.52-24.32-.2-1.48.32-.23,3.27-1.11,4.11-.72.69-2.98-.05-3.7.64-.88.84.38,3.79-1.11,4.11s-9.86.29-11.38,0c-1.73-.34.16-4.19-1.58-4.52-1.49-.29-8.48-.29-9.95,0-1.56.31,2.07,6.55-8.64,4.52-1.74-.33.15-4.18-1.58-4.52-2.99-.58-15.33,1.02-16.41-.07-.61-.61.77-3.93-.88-4.26-6.17-1.23-16.75,1.43-22.92.2-1.64-.33-.27-3.64-.88-4.26-1.04-1.05-9.24.55-11.87-.13-1.51-.39-1.38-3.45-3.34-4.14-2.41-.84-23.33-.58-25.07.55-1,.65-.96,3.21-2.43,3.59-4.95,1.3-14.53-1.18-19.82-.13-1.64.33-.27,3.64-.88,4.26-1,1.02-9.54-.44-12.09.07-1.73.34.15,4.18-1.58,4.52-3.19.63-8.2-.82-11.39-.2-1.73.34.15,4.18-1.58,4.52-2.37.47-9.68-.92-10.65.07-.61.62.76,3.93-.88,4.26-2.21.44-17.8.44-20.04,0-1.73-.34.16-4.18-1.58-4.52-2.15-.42-16.45-.42-18.59,0-1.73.34.16,4.18-1.58,4.52-2.59.51-21.77.51-24.36,0-1.73-.34.15-4.18-1.58-4.52-1.58-.31-9.82-.31-11.39,0-1.65.33-.28,3.66-.88,4.26-1.04,1.04-7.43-.72-8.47.32-.6.6.77,3.93-.88,4.26-4.07.81-10.58-.76-15.07-.1v-4.31c11.45,2.01,7.52-2.96,8.74-4.17,1.06-1.06,7.13.81,8.4-.4.32-.31,3.3-7.28,3.04-8.4h-20.17c-.21,0,.49-3.62-.1-4.15-1.26-1.14-13.23.55-16.4-.08-1.73-.34.16-4.18-1.58-4.52-2.81-.55-24.43-.55-27.24,0-1.73.34.16,4.18-1.58,4.52-6.59,1.29-17.76-1.49-24.36-.2-1.73.34.16,4.18-1.58,4.52-2.9.57-13.91-1-14.97.07-.61.61.77,3.93-.88,4.26-2.53.5-21.81.5-24.36,0-1.73-.34.16-4.18-1.58-4.52-1.92-.38-13.8-.38-15.71,0-1.72.34.13,4.2-1.57,4.52-9.31,1.73-5.41-4.16-7.21-4.52s-13.81-.37-15.71,0c-1.73.34.15,4.18-1.58,4.52-1.6.31-9.79.31-11.39,0-1.73-.34.16-4.18-1.58-4.52-3.47-.68-32.42-.68-35.89,0-1.73.34.16,4.18-1.58,4.52-2.1.41-18.04.43-20.03,0-1.48-.32-.23-3.27-1.11-4.11-.72-.69-2.98.05-3.7-.64-.88-.84.38-3.79-1.11-4.11-1.6-.34-12.59-.33-14.26,0s-.28,3.66-.88,4.26c-1.04,1.04-7.44-.71-8.47.32-.51.51.34,3.47-.18,4-.99,1.02-9.55-.44-12.09.07-1.64.33-.27,3.64-.88,4.26-.98.99-8.28-.41-10.65.07-1.64.33-.27,3.66-.87,4.26-1.04,1.04-7.43-.72-8.47.32-.6.6.77,3.93-.88,4.26-2.18.43-17.85.43-20.04,0-1.64-.33-.27-3.64-.88-4.26-1.08-1.09-13.43.52-16.41-.07-1.73-.34.15-4.18-1.58-4.52-2.37-.47-9.68.92-10.65-.07-.61-.62.76-3.93-.88-4.26-6.55-1.3-17.77,1.49-24.36.2-1.73-.34.16-4.18-1.58-4.52-3.09-.6-28.5-.61-31.56,0-1.64.33-.27,3.64-.88,4.26-1.16,1.17-17.16-.63-20.73.07-1.73.34.16,4.18-1.58,4.52s-12.46.35-14.27,0,.15-4.18-1.58-4.52c-1.58-.31-9.82-.31-11.39,0-1.64.33-.27,3.64-.88,4.26-1,1.02-9.54-.44-12.09.07-1.73.34.15,4.18-1.58,4.52-2.15.42-16.45.42-18.59,0-1.73-.34.16-4.18-1.58-4.52-3.52-.69-33.84-.69-37.33,0-1.65.33-.27,3.66-.88,4.26-.88.87-6.58-.25-8.57.17v4.31c2.53.51,11.89-.8,12.85.22.47.5-.35,3.07.38,3.85,1.27,1.36,5.5-1.99,4.08,4.57-.62.66-9.85-.55-12.19-.09-1.73.34.16,4.18-1.58,4.52s-12.46.35-14.27,0,.16-4.18-1.58-4.52c-4.32-.84-11.4,1.04-15.71.2-1.73-.34.16-4.18-1.58-4.52-2.26-.44-17.78-.44-20.04,0-1.73.34.16,4.18-1.58,4.52-9.65,1.89-26.23-2.09-35.89-.2-1.73.34.16,4.18-1.58,4.52-5.07.99-13.52-1.19-18.59-.2-1.73.34.15,4.18-1.58,4.52-3.34.65-8.5-.63-12.19-.11v-4.31c1.99-.42,7.69.7,8.57-.17.6-.6-.77-3.93.88-4.26,3.91-.78,10.45,1.02,14.26.2,1.49-.32.23-3.27,1.11-4.11.72-.69,2.99.05,3.7-.64.81-.78,0-3.3.44-3.78,1.11-1.17,7.21.69,8.42-.4.58-.52-.11-4.15.09-4.15h25.94c1.43-6.58-2.78-3.21-4.07-4.58-.81-.86.48-3.85-1.05-4.17s-9.84-.3-11.38,0c-1.73.34.16,4.18-1.58,4.52-6.59,1.29-17.76-1.49-24.36-.2-1.73.34.16,4.18-1.58,4.52-6.21,1.21-16.7-1.41-22.92-.2-1.73.34.16,4.18-1.58,4.52-2.23.44-17.83.44-20.04,0-1.64-.33-.27-3.64-.88-4.26-1.06-1.07-12.07.5-14.97-.07-1.73-.34.15-4.18-1.58-4.52-1.92-.38-13.79-.38-15.71,0-1.73.34.15,4.18-1.58,4.52-2.34.46-11.56-.75-12.19-.09v4.31s8.66.01,8.66.01v4.31c-3.68-.53-8.87.76-12.19.11-1.65-.33-.27-3.7-.86-4.27-1-.97-6.07.66-7.05-.3-.5-.49.35-3.49-.16-4.01-1.03-1.04-7.44.71-8.47-.32-.51-.51.34-3.49-.17-4-1.03-1.04-7.43.72-8.47-.32-.6-.6.77-3.93-.88-4.26-2.54-.51-11.1.95-12.09-.07-.52-.53.33-3.48-.18-4-1.03-1.04-7.43.72-8.47-.32-.6-.6.77-3.93-.88-4.26-2.11-.42-16.47-.42-18.59,0-1.73.34.15,4.18-1.58,4.52-1.6.31-9.8.31-11.39,0-1.73-.34.16-4.18-1.58-4.52-2.55-.5-11.08.95-12.09-.07-.61-.62.76-3.96-.87-4.26-2.4-.45-5.71.66-8.52.03-2.18-.48-3.71-2.26-5.89-2.74-2.81-.62-6.1.47-8.52.03-1.72-.31.17-4.19-1.57-4.52-2.99-.57-7.45.57-10.74.1v-21.61c4.52-1.18,2.23,3.5,2.97,4.16,1.2,1.06,7.41-.72,8.47.33.6.6-.77,3.93.88,4.26,7.32,1.45,19.89-1.63,27.24-.2,1.73.34-.15,4.18,1.58,4.52,3.19.63,8.2-.82,11.39-.2,1.73.34-.15,4.18,1.58,4.52,2.55.5,11.08-.95,12.09.07.61.62-.76,3.93.88,4.26,1.96.39,16.71.41,18.59,0,1.48-.32.23-3.27,1.11-4.11.72-.69,2.98.05,3.7-.64.88-.84-.38-3.79,1.11-4.11,2.08-.45,22.26-.45,24.34,0,1.48.32.23,3.27,1.11,4.11.72.69,2.99-.05,3.7.64.81.78-.03,3.35.43,3.8.89.88,4.3-.26,6.07.16,1.54.36,1.38,3.47,3.36,4.14,8.5,2.89,5.58-3.9,7.1-4.2s9.82-.31,11.38,0c2.21.44-1.94,4.94,4.44,4.51,5.49-.37,4.26-3.99,6.01-4.44,1.23-.32,10.02-.36,11.14-.06.93.25.05,4.99,6.27,6.86,3.69,1.11,11.8,4.78,12.49,4.86,2.67.32,12.09.45,14.42,0,1.73-.34-.16-4.18,1.58-4.52,4.72-.92,12.22.88,17.32.21,2.67-.35,1.89-2.69,3.06-2.96,16.54-3.89,37.79,5.31,48.45,2.82,1.17-.27.39-2.62,3.06-2.96,4.98-.65,21.15-.65,26.13,0,2.67.35,1.89,2.69,3.06,2.96,2.37.55,11.48.46,14.22.13,1.34-.16,10.35-7.29,11.37-7.41,3.67-.43,20.04-.65,23.05,0,1.44.31.27,3.01,1.16,4.05.22.26,5.7,3.32,6.04,3.36,2.17.3,10.93.37,12.72-.11,1.59-.42,4.52-6.87,7.5-7.3,7.33-1.06,6.38,2.68,7.51,2.94,2.66.63,5.93-.23,9.26.65,2.71.71,2.52,3.43,3.71,3.69,2.73.6,13.96.52,17.07.15,3.31-.4,1.91-3.78,5.66-4.48,13.09-2.43,31.39,4.05,44.77,1.51,3.58-.68,2.97-3.99,4.56-4.39,2.97-.75,13.65.98,14.75-.13.61-.61-.76-3.93.88-4.26,2.81-.56,25.87-.56,28.68,0,1.65.33.27,3.64.88,4.26.37.38,9.27.53,10.65.26,1.73-.34-.16-4.18,1.58-4.52,10.5-2.05,28.17,2.16,38.88.13,3.58-.68,2.97-3.99,4.56-4.39,5.7-1.44,16.66,1.33,22.7.13,1.65-.33.28-3.66.88-4.26,1.04-1.04,7.44.71,8.47-.32.51-.51-.34-3.49.17-4,1.03-1.04,7.44.71,8.47-.32.51-.51-.34-3.47.18-4,.55-.56,15.23-.75,15.76-.16,2.46,2.7-5.28,3.89,8.65,4.32ZM704.21,572.49c-1.79-.77-13.93-1-15.89-.49-1.2.31-3.36,6.99-9.66,4.36v4.31c1.22,1.28,30.02-.76,35.37-.12,3.31.4,1.91,3.78,5.66,4.48,5.17.96,12.56-.74,18.07-.04v-4.31c-.59-.62-8.59.51-10.75.09-1.73-.34.16-4.18-1.58-4.52-4.11-.81-10.29.5-15.44-.29s-5.1-3.19-5.77-3.48Z"/>
      <path class="cls-6" d="M0,534.58c4.61,1.29,1.82-3.96,3.68-4.42,2.08-.52,14.51-.26,17.15.16s4.32,3.23,7.19,2.9c.78-.09.64-2.68,1.76-2.94,2.99-.71,7.06.67,9.78.09,1.47-.31.22-3.27,1.1-4.11.72-.69,2.98.05,3.7-.64.88-.84-.38-3.79,1.11-4.11,2.64-.57,23-.46,25.9.08.68.13,10.11,8.39,10.4,9.01.93,1.97-.11,4.14.37,5.76.1.33,4.35,4.9,4.66,5.05,2.57,1.21,7.31-.35,8.23.53.59.56-.78,3.96.86,4.27,2.8.54,6.85-.95,9.85.13,1.61.58,1.71,2.75,2.87,3.64.84.65,2.89.14,3.47.79.87.97-.34,3.79,1.12,4.09,2.74.57,6.83-.94,9.85.11,2.47.86.61,4.26,5.93,4.25s3.34-2.62,5.02-3.7c1.59-1.03,16.95-1.4,19.4-.87,1.48.32.23,3.27,1.11,4.11.72.69,2.99-.05,3.7.64.81.78,0,3.3.44,3.78,1.11,1.17,7.27-.73,8.38.45.45.48-.36,3.01.44,3.78.71.69,2.99-.05,3.7.64.8.77-.01,3.28.45,3.78,1.09,1.17,12-.44,14.92.13,1.73.34-.15,4.18,1.58,4.52,2.55.5,11.08-.95,12.09.07.61.62-.76,3.93.88,4.26,3.38.67,32.47.67,35.89,0,1.73-.34-.16-4.18,1.58-4.52,2.99-.58,22.8-.52,25.92.06,3.75.7,2.35,4.08,5.66,4.48,22.04,2.64,49.38-2.29,72.03-.02,1.73-.34-.16-4.18,1.58-4.52,9.65-1.89,26.24,2.09,35.89.2,1.53-.3-2.02-6.58,8.64-4.52,1.54.3-2.03,6.57,8.65,4.52,1.65-.32.27-3.64.88-4.26,1.01-1.02,9.54.45,12.09-.07,2.02-.41-2.08-5.75,5.87-4.53,3.34.51,2.28,3.53,4.48,4.22,1.88.6,5.34-.36,6.15.44.49.48-.33,3,.46,3.77.71.69,2.98-.04,3.69.64,1.59,1.53-1.94,5.96,8.96,4.01-.81-4.42,1.31-13.41-.39-16.95-.27-.57-5.29-3.79-6.33-5.26-.72-1.02-.26-3.18-.63-3.51-1.08-1-5.41.32-7.51-.18-1.56-.37-.96-3.72-4.55-4.4-3.14-.59-27.36-.69-30.23-.07-1.48.32-.23,3.25-1.12,4.1-2.67,2.54-9.66,6.76-12.33,9.3-.89.84.36,3.78-1.12,4.1-9.3,2-26.3-2.07-35.88-.2-1.73.34.16,4.18-1.58,4.52s-12.46.35-14.27,0,.16-4.18-1.58-4.52c-1.9-.37-13.83-.38-15.71,0-1.64.33-.27,3.64-.88,4.25-.46.45-7.9.48-8.41-.06-.46-.48.35-2.96-.47-3.76-.68-.66-4.48-1.32-6.36-5.06-3.35-6.66,5.89-2.98,10.22-3.82,1.73-.34-.16-4.18,1.58-4.52,1.95-.38,10.92-.32,12.95.06,1.29.24,12.29,8.19,13.08,8.47,1.57.54,8.14.65,9.85.31s.28-3.64.88-4.25c1.01-1.02,9.54.44,12.09-.07,1.65-.33.28-3.66.88-4.26,1.04-1.04,7.44.71,8.47-.32.51-.51-.34-3.47.18-4,.99-1.02,9.55.44,12.09-.07,1.13-.23-.6-7.13,7.99-4.43.82-6.94-10.26-3.27-11.51-4.32-.73-4.87,4.1-3.42,6.04-4.47,1.33-.72,1.27-2.47,2.18-2.68,6.47-1.53,17.62,1.35,24.13.05,1.64-.33.27-3.64.88-4.26,1-1.02,9.54.43,12.09-.07,1.73-.34-.16-4.18,1.58-4.52,2.9-.57,13.91,1,14.97-.07.61-.61-.77-3.93.88-4.26,1.88-.38,13.81-.37,15.71,0,1.73.34-.15,4.18,1.58,4.52,3.19.63,8.28-.87,11.38-.2,1.48.32.23,3.27,1.11,4.11.72.69,2.98-.05,3.7.64.87.83-.37,3.78,1.11,4.1,9.73,2.14,9.85-4.18,12.84-4.54,3.68-.45,19.86-.61,23.04.02,1.64.33.27,3.63.88,4.25.44.44,7.82.47,9.32.19,3.34-.61,6.73-7.61,8.21-8.3,2.15-1,4.83.32,6.57-.69.71-.4.73-3.12,2.62-3.79,3.79-1.33,10.28.66,14.17-.12,1.65-.33.28-3.66.88-4.26,1.04-1.04,7.44.71,8.47-.32.51-.51-.34-3.49.17-4,1.03-1.04,7.44.71,8.47-.32.51-.51-.34-3.47.18-4,.99-1.01,9.54.43,12.09-.07,1.73-.34-.16-4.18,1.58-4.52,3.94-.77,10.33.97,14.27.2,1.73-.34-.15-4.18,1.58-4.52,3.8-.74,36.41-.74,40.21,0,1.73.34-.16,4.18,1.58,4.52,1.92.38,13.79.38,15.71,0,1.73-.34-.16-4.18,1.58-4.52,4.98-.97,13.67,1.32,18.38.13,1.57-.4,1.6-4.6,4.56-4.39l59.06-.06c-.37,8.58,11.11,2.28,13.66,4.6.59.53-.11,4.15.1,4.15h46.11v4.32s-12.98.01-12.98.01v4.32h21.62c.21,0-.49,3.63.09,4.15,1,.9,7.65-.49,10.51.42,4.01,1.28,10.5,16.42,18.22,12.72v4.32h-48.28c-.86,0-1.71-3.61-2.43-4.01-2.01-1.12-5.94.4-6.86-.45-.59-.55.79-3.95-.86-4.28-3.56-.71-19.59,1.11-20.74-.06-.52-.53.33-3.48-.18-4-1.03-1.04-7.43.72-8.47-.32-.6-.59.77-3.93-.88-4.26-4.63-.93-11.41-.79-12.91,4.44-2.92.79-2.64-3.89-4.59-4.37-1.52-.37-8.04-.38-9.52,0s-1.37,3.44-3.33,4.14c-3.99,1.4-11.08-1.11-14.62.6-1.08.52-16.3,15.85-16.84,16.92-1.29,2.61-.54,6.92-.8,7.2-.55.61-8.59-.53-10.74-.11-1.73.34.16,4.18-1.58,4.52-3.19.63-8.22-.83-11.39-.2-1.65.33-.28,3.66-.88,4.26-1.04,1.04-7.44-.71-8.47.32-.51.51.34,3.49-.17,4-.91.92-5.84-.35-7.78.06-1.7.36,1.15,6.29-5.1,4.42-.53-.58-15.21-.4-15.76.16-.52.53.33,3.48-.18,4-1.03,1.04-7.44-.71-8.47.32-.51.51.34,3.49-.17,4-1.03,1.04-7.43-.72-8.47.32-.6.6.77,3.93-.88,4.26-6.04,1.2-17-1.57-22.7-.13-1.59.4-.98,3.71-4.56,4.39-10.72,2.03-28.38-2.19-38.88-.13-1.73.34.15,4.19-1.58,4.52-1.38.27-10.27.11-10.65-.26-.61-.61.77-3.93-.88-4.26-2.81-.56-25.88-.56-28.68,0-1.64.33-.27,3.64-.88,4.26-1.11,1.12-11.78-.62-14.75.13-1.59.4-.98,3.71-4.56,4.39-13.37,2.53-31.68-3.94-44.77-1.51-3.75.7-2.35,4.08-5.66,4.48-3.11.37-14.34.45-17.07-.15-1.19-.26-1-2.98-3.71-3.69-3.34-.88-6.61-.02-9.26-.65-1.13-.27-.18-4.01-7.51-2.94-2.99.43-5.91,6.88-7.5,7.3-1.79.47-10.55.41-12.72.11-.34-.05-5.82-3.1-6.04-3.36-.89-1.05.28-3.74-1.16-4.05-3.01-.65-19.38-.43-23.05,0-1.02.12-10.03,7.25-11.37,7.41-2.74.33-11.85.42-14.22-.13-1.17-.27-.39-2.62-3.06-2.96-4.98-.65-21.15-.65-26.13,0-2.67.35-1.89,2.69-3.06,2.96-10.66,2.49-31.91-6.71-48.45-2.82-1.17.27-.39,2.61-3.06,2.96-5.1.67-12.6-1.13-17.32-.21-1.73.34.16,4.18-1.58,4.52-2.33.46-11.75.32-14.42,0-.69-.08-8.8-3.75-12.49-4.86-6.22-1.88-5.34-6.61-6.27-6.86-1.12-.3-9.91-.26-11.14.06-1.75.45-.52,4.07-6.01,4.44-6.37.43-2.23-4.07-4.44-4.51-1.56-.31-9.82-.31-11.38,0s1.39,7.08-7.1,4.2c-1.98-.67-1.81-3.78-3.36-4.14-1.77-.42-5.17.71-6.07-.16-.45-.45.38-3.02-.43-3.8-.71-.69-2.98.05-3.7-.64-.88-.84.38-3.79-1.11-4.11-2.08-.45-22.26-.45-24.34,0-1.48.32-.23,3.27-1.11,4.11-.72.69-2.98-.05-3.7.64-.88.84.38,3.79-1.11,4.11-1.87.4-16.62.39-18.59,0-1.64-.33-.27-3.64-.88-4.26-1-1.02-9.54.44-12.09-.07-1.73-.34.15-4.18-1.58-4.52-3.19-.63-8.2.82-11.39.2-1.73-.34.15-4.18-1.58-4.52-7.35-1.44-19.92,1.65-27.24.2-1.65-.33-.28-3.66-.88-4.26-1.05-1.05-7.27.73-8.47-.33-.74-.65,1.55-5.34-2.97-4.16v-8.65c3.28.48,7.77-.68,10.74-.1,1.64.32.27,3.64.88,4.26,1.09,1.1,11.62-.74,14.87.38,2.17.75,1.2,3.83,4.43,4.23,1.52.19,8.99.06,9.34-.29.61-.61-.77-3.93.88-4.26,1.86-.37,13.85-.37,15.71,0,1.65.33.28,3.66.88,4.26,1.06,1.05,7.32-.78,8.42.39.45.48-.36,2.97.46,3.77.67.66,2.76,0,3.6.72,2.68,2.26,1.59,9.64,11.18,8.26,3.93-3.78-5.32-7.24-6.05-9.05-.93-2.31.22-6.35-1.75-7.65s-6.34.06-7.22-.78c-.63-.6.73-3.94-.87-4.25-1.96-.38-6.87.85-7.78-.06-.6-.6.77-3.93-.88-4.26-1.89-.38-13.81-.37-15.71,0-1.73.34.16,4.19-1.58,4.52-10.72,2.03-7.08-4.21-8.64-4.52-8.26-1.65-21.94,1.41-30.91.1v-15.85ZM641.11,517.45c-1.59-1.61-41.8-.93-45.23-.26-1.73.34.15,4.18-1.58,4.52-2.34.46-11.56-.75-12.19-.09v4.31c1.02,1.07,25.07-.95,29.48-.09,1.73.34-.16,4.18,1.58,4.52,2.44.48,20.5.48,22.92,0,1.56-.31-2.07-6.55,8.64-4.52,1.74.33-.15,4.18,1.58,4.52,3.7.72,25.64,1.87,25.14-4.41-3.68-.58-8.82.75-12.17.09-1.73-.34.16-4.18-1.58-4.52-4.31-.84-11.42,1.05-15.71.2-1.65-.33-.27-3.64-.88-4.26ZM570.9,554.41c-.72-.45-.75-3.12-2.63-3.77-1.57-.55-8.14-.66-9.85-.31s-.28,3.66-.88,4.26c-1.04,1.04-7.43-.72-8.47.32-.87.87,2.69,6.31-7.94,4.26-1.56-.3,2.07-6.55-8.65-4.52-1.74.33.15,4.18-1.58,4.52-3.91.77-10.36-1.21-14.17.12-1.97.69-1.85,3.77-3.33,4.14-2.75.69-6.79-.77-9.53-.07-1.15.29-3.38,7-9.65,4.36v4.31c.81.84,17.5-.75,20.83-.09,2.21.44-1.94,4.94,4.44,4.51,5.49-.37,4.25-3.98,6.01-4.44,1.63-.43,16.47-.44,18.38-.07,1.73.34-.16,4.18,1.58,4.52,1.52.3,9.94.31,11.38,0s.23-3.27,1.11-4.11c.72-.69,2.98.05,3.7-.64.88-.84-.38-3.79,1.11-4.11,3.81-.82,10.33.97,14.26.2,1.73-.34-.15-4.18,1.58-4.52,2.76-.54,15.8.84,16.51.09v-4.31c-1.99-.42-7.69.7-8.57-.17-.6-.6.77-3.93-.88-4.26-3.6-.72-12.25,1.32-14.76-.24ZM443.8,580.69h33.14c.55,0,.95-6.96,8.66-4.33v-4.31c-.59-.62-8.59.51-10.75.09-1.73-.34.16-4.18-1.58-4.52-2.42-.47-22.04-.49-24.35,0-1.51.32-.23,3.31-1.07,4.15-1.6,1.6-5.97-2.12-4.05,8.92Z"/>
      <path class="cls-6" d="M1181.54,462.53v8.65c-2.94-.05-4.59-.72-7.3,1.04-2.15,1.4-11.59,9.18-12.89,9.76-2.38,1.05-6.45.32-7.08.91s.73,3.91-.89,4.24c-5.15,1.04-15.46-1.48-19.94-.2-.48.14-3.55,7.5-5.61,8.31-2.36.93-6.21-.22-7.65,1.83-1.01,1.44.84,3.72.55,4.93-1.05,4.43-11.32,1.17-12.6,2.47-.51.52.34,3.48-.17,4-1.89,1.9-9.81-3.28-8.57,3.76.31,1.76,9.95.19,12.19.63,1.73.34-.16,4.18,1.58,4.52,2.68.52,14.38-.82,15.07-.09,1.23,6.49-2.21,3.16-3.99,4.65-.27.22-3.28,5.76-3.33,6.1-.71,4.58,1.43,9.24,6.58,9.47.92.04-.05-2.69,2.79-3.07,2.55-.34,12.02-.37,14.27.15,1.38.32.36,3.99,4.55,2.89.58-.15.43-2.48,1.77-2.84,6.46-1.73,8.11-4.29,8.62-4.43,3.67-.97,10.2.9,14.06.13,1-.2-.33-7.14,7.99-4.42v11.53c-9.31-1.34-5.76,1.37-7.62,3.82-1.14,1.5-4.5,1.59-3.91,4.83-3.18.09-8.17-.64-10.73-.1-1.48.31-.23,3.27-1.1,4.11-.72.69-2.99-.05-3.7.64-.81.78,0,3.3-.44,3.78-.97,1.03-5.74-.28-7.72.12-1.5.3-.22,3.18-1.07,4.14-.89,1.01-3.75.03-4.04.29-4.26-.52-9.74.79-13.74.04-3.56-.67-2.97-4-4.55-4.39-1.43-.36-8.22-.36-9.74-.07-1.64.32-.27,3.64-.88,4.26-1.01,1.02-9.54-.44-12.09.07-1.65.33-.28,3.66-.88,4.26-1.04,1.04-7.43-.72-8.47.32-.6.6.77,3.93-.88,4.26-2.55.51-11.08-.95-12.09.07-.61.62.76,3.93-.88,4.26-1.3.26-10.24.06-10.6-.33-.46-.49.35-3-.45-3.78-.71-.69-2.98.05-3.7-.64-.88-.84.38-3.79-1.11-4.11-1.3-.28-11.66-.16-12.08.27-.52.53.33,3.48-.18,4-1.03,1.04-7.43-.72-8.47.32-.6.6.77,3.93-.88,4.26s-9.81.31-11.39,0c-1.73-.34.16-4.18-1.58-4.52s-12.5-.35-14.27,0c-1.65.33-.28,3.66-.88,4.26-1.04,1.04-7.43-.72-8.47.32-.6.6.77,3.93-.88,4.26-3.17.63-8.2-.82-11.39-.2-1.73.34.16,4.18-1.58,4.52-4.32.84-11.4-1.04-15.71-.2-1.73.34.16,4.18-1.58,4.52-6.21,1.21-16.7-1.41-22.92-.2-1.73.34.16,4.18-1.58,4.52-3.8.74-36.41.74-40.21,0-1.73-.34.16-4.18-1.58-4.52-5.45-1.06-14.62,1.28-20.04.2-1.64-.33-.27-3.64-.88-4.26-1.1-1.1-12.07.56-14.96-.06-1.49-.32-.23-3.27-1.11-4.11-.72-.69-2.99.05-3.7-.64-.8-.77.01-3.28-.45-3.78-1.04-1.12-9.47.38-12.04-.13-1.73-.34.15-4.18-1.58-4.52-1.6-.31-9.79-.31-11.39,0-1.73.34.16,4.18-1.58,4.52-3.73.73-36.51.74-40.21,0-1.64-.33-.27-3.64-.88-4.26-1.01-1.02-9.54.44-12.09-.07-1.65-.33-.28-3.66-.88-4.26-1.04-1.04-7.43.72-8.47-.32-.6-.6.77-3.93-.88-4.26-8.46-1.68-23.07,1.86-31.56.2-1.73-.34.15-4.18-1.58-4.52-2.26-.44-14.92-.38-17.27.06-3.58.68-2.97,3.99-4.56,4.39-3.74.95-10.18-.91-14.05-.13-1.65.33-.28,3.66-.88,4.26-1.89,1.88-9.38-3.41-9.35,4.58-17.96-.59-36.02.45-53.97-.1-1.89-7.92,7.19-2.86,12.19-4.23,1.65-.45.56-4.42.78-4.42h37.46v-4.32s-8.65-.01-8.65-.01c-1.42-6.56,2.81-3.22,4.08-4.57.74-.79-.09-3.4.36-3.87.93-.95,5.48.35,7.54-.16,1.48-.36,1.36-3.46,3.32-4.15,2.72-.95,9.64.56,10.54-.39.5-.52-.37-3.42.2-3.96.49-.46,4.75-.12,7.02-.97,3.89-1.46,5.21-6.12,7.95-6.54,2.54-.39,14.93-.44,17.27.02,1.73.34-.16,4.18,1.58,4.52,4.31.84,10.96-1.03,15.47-.05,1.08.23,5.18,6.84,6.41,7.16,2.32.62,9.86-.62,10.48,0l-2.89,8.63h57.65c.03,1.44,0,2.89,0,4.33-4.27.06-11.55-.8-15.06-.1-1.64.33-.27,3.66-.88,4.26-.88.87-6.58-.25-8.57.17v4.31c3.69-.53,8.85.76,12.19.11,1.73-.34-.15-4.18,1.58-4.52,2.24-.44,10.02.75,10.75.1.03-1.44,0-2.88,0-4.33,8.62-.11,17.31.09,25.93,0,1.07-3.28-7.54-5.32-4.32-8.63.37-.38,9.27-.27,10.65.21,1.85.65,1.89,3.34,2.64,3.77,3.47,2.01,4.84-.8,10.67,5.29,2.81,2.94,2.65,2.3,4.56,4,.31.28.92,7.69,4.62,4.02.5-.5-1-3.91.79-4.42.93-.26,10.21-.26,11.39,0,1.48.32.23,3.27,1.11,4.11.72.69,2.99-.05,3.7.64.8.77-.01,3.28.45,3.78,1.04,1.12,9.47-.38,12.04.13,1.73.34-.15,4.18,1.58,4.52,2.44.48,9.52-.94,10.64.08.59.53-.11,4.15.1,4.15h30.26c1.62-7.77-5.93-.87-4.33-8.64.68-.72,14.94.62,18.07.03,3.58-.68,2.97-3.99,4.56-4.39,4.71-1.19,13.4,1.1,18.38.13,1.73-.34-.15-4.18,1.58-4.52,2.63-.52,10.92.98,12.08-.08.59-.53-.11-4.15.1-4.15h20.17c1.62-7.77-5.93-.87-4.33-8.64,3.44.61,9.33-.89,12.2-.1,1.65.45.56,4.42.78,4.42h41.79c-.32-1.8.47-8.18,0-8.65-.93-.96-8.02,2.2-7.2-2.13,3.69-4.35,10.29-1.14,14.85-2.21,1.09-.26.88-2.56,1.97-2.82,5.45-1.29,10.04,3.21,7.76-7.88-.31-1.5-3.32-.23-4.15-1.07-.76-.77.07-3.33-.41-3.83-.56-.6-14.66-.66-16.37-.32-1.13.22.61,7.1-8,4.43-.34-1.8.49-8.18.01-8.66-.43-.43-10.84-.36-12.19-.09-1.64.33-.27,3.64-.88,4.26-1.01,1.02-9.54-.44-12.09.07-1.13.23.61,7.12-8,4.41-.53-.51,2.72-8.08,3.04-8.39,1.27-1.22,7.33.65,8.4-.41.6-.59-.77-3.93.87-4.26,2.55-.51,11.08.95,12.09-.07.61-.62-.76-3.94.87-4.26,2.81-.54,6.61.87,9.82-.15,1.74-.55,5.49-7.02,6.7-7.6,2.6-1.25,6.46-.36,7.1-.96.55-.51-.32-3.44.19-3.97,1.13-1.17,11.55.85,12.73-.4.45-.48-.32-2.86.46-3.76.58-.66,2.63-.14,3.47-.79,1.15-.9,1.26-3.06,2.87-3.65,3.89-1.42,7.81.95,11.21.78,3.65-.18,3.54-3.62,4.74-3.86,2.49-.5,5.34.45,8.08-.31,3.89-1.08,6.06-7.48,7.06-8.05,2.21-1.25,7.28.51,8.28-.46.5-.49-.36-3.48.17-4.01,1.06-1.08,13.44.52,16.41-.06,1.73-.34-.16-4.18,1.58-4.52,3.94-.77,10.35.98,14.27.2,1-.2-.33-7.14,7.99-4.42Z"/>
      <path class="cls-2" d="M1181.54,471.18v20.17c-16.07-2.19-14.59,9.37,0,4.32v30.26c-8.33-2.72-6.99,4.22-7.99,4.42-3.86.77-10.38-1.1-14.06-.13-.51.14-2.16,2.7-8.62,4.43-1.34.36-1.19,2.69-1.77,2.84-4.2,1.11-3.18-2.57-4.55-2.89-2.25-.52-11.72-.49-14.27-.15-2.83.37-1.87,3.11-2.79,3.07-5.14-.23-7.29-4.88-6.58-9.47.05-.34,3.07-5.88,3.33-6.1,1.78-1.5,5.21,1.84,3.99-4.65-.69-.72-12.39.62-15.07.09-1.73-.34.15-4.18-1.58-4.52-2.24-.44-11.88,1.13-12.19-.63-1.24-7.03,6.67-1.86,8.57-3.76.52-.52-.34-3.48.17-4,1.28-1.3,11.55,1.96,12.6-2.47.29-1.21-1.57-3.49-.55-4.93,1.44-2.04,5.29-.9,7.65-1.83,2.05-.81,5.12-8.18,5.61-8.31,4.48-1.28,14.79,1.23,19.94.2,1.62-.33.25-3.64.89-4.24s4.7.13,7.08-.91c1.31-.57,10.74-8.36,12.89-9.76,2.71-1.76,4.35-1.09,7.3-1.04Z"/>
      <path class="cls-3" d="M0,370.31c2.38.45,10.43-.79,11.39.23.45.48-.35,2.97.46,3.77,1.54,1.5,2.27,1.67,5.06,4.68,1.98,2.13,7.46,4.73,5.94,7.03-.17.26-5.54,1.49-2.68,4.46.78.81,16.2-.72,19.39-.09,1.73.34-.16,4.18,1.58,4.52s13.95.34,15.49-.07,1.38-3.45,3.34-4.14c3.16-1.1,14.02.59,14.95-.22.54-5.96-5.9-3.29-8.34-4.65-.8-.45-1.64-3.99-2.46-3.99H31.7v-2.88h46.11c.19,0,.03,2.83,1.37,3.63,2.08,1.23,4.74.15,6.23.77,1.29.54,1.02,2.52,2.05,2.77,4.7,1.13,14.87-.19,20.62.04,3.17.12,7.99-.69,10.64.22,1.96.67,1.83,3.75,3.33,4.14,5.2,1.34,17.16-2.97,7.13,5.85-.91.8-.79,2.76-.93,2.76h-28.82v4.32s12.98.01,12.98.01v4.32h-63.41c-.21,0,.49-3.61-.1-4.15-1.16-1.05-9.45.44-12.08-.08-1.73-.34.15-4.18-1.58-4.52-9.48-1.85-24.99,1.57-35.23.1v-11.53c6.27.02,8.21,1.82,7.21-5.76H0v-11.53ZM86.45,394.81h-24.5v4.32h24.5v-4.32Z"/>
      <path class="cls-6" d="M0,357.35c3.29.48,7.75-.67,10.74-.1,1.73.33-.16,4.18,1.57,4.52,3.19.63,8.28-.87,11.38-.2,1.48.32.23,3.27,1.11,4.11.72.69,2.98-.05,3.7.64.86.82-.34,3.81,1.1,4.1,8.65,1.75,5.57-2.99,6.73-4.1.71-.69,2.98.05,3.7-.64.88-.84-.37-3.79,1.11-4.11s9.89-.29,11.38,0c1.65.33.28,3.66.88,4.26,1.04,1.04,7.44-.71,8.47.32.51.51-.34,3.49.17,4,1.03,1.04,7.45-.71,8.47.32.51.52-.34,3.53.16,4.01.8.78,5.46-.32,7.59.17,1.07.24.84,2.57,1.97,2.84,1.84.44,5.35-.56,6.14.16.51.47-.36,3.47.16,4.01.74.76,14.87-.08,17.99.16,4.42.35,3.71-.71,3.53,4.33-5.74-.22-15.92,1.1-20.62-.04-1.02-.25-.75-2.23-2.05-2.77-1.49-.62-4.15.46-6.23-.77-1.34-.79-1.17-3.63-1.37-3.63H31.7v2.88h32.42c.82,0,1.66,3.55,2.46,3.99,2.43,1.36,8.87-1.32,8.34,4.65-.94.82-11.8-.88-14.95.22-1.96.69-1.83,3.75-3.34,4.14s-13.73.41-15.49.07.16-4.18-1.58-4.52c-3.19-.62-18.6.91-19.39.09-2.86-2.97,2.51-4.2,2.68-4.46,1.53-2.3-3.96-4.9-5.94-7.03-2.79-3.01-3.52-3.18-5.06-4.68-.81-.79,0-3.29-.46-3.77-.96-1.02-9.01.22-11.39-.23v-12.97Z"/>
      <path class="cls-3" d="M1090.77,302.59c5.69-.05,21.17,1.19,25.1.09.47-.13,2.61-6.7,5.18-7.94s6.46-.38,7.09-.97c.55-.51-.32-3.44.19-3.98,1.13-1.17,11.57.85,12.73-.4.46-.5-.35-3,.45-3.78.71-.69,2.98.05,3.7-.64.88-.84-.38-3.79,1.11-4.11,2.05-.44,21.2-.24,22.81.32,1.98.69,1.81,3.78,3.35,4.15,1.79.43,5.15-.68,6.11.1.72.58-1.56,5.38,2.96,4.17v8.65c-6.56.94-16.24-1.28-22.27-.1-1.73.34.16,4.18-1.58,4.52-4.31.84-11.44-1.06-15.71-.2-1.62.33-.25,3.67-.88,4.25-.76.71-4.31-.24-6.2.38-2.01.66-1.83,3.74-3.36,4.14-1.69.44-7.99.32-9.64-.25-1.94-.66-1.81-3.74-3.33-4.14-1.63-.42-16.49-.44-18.38-.07-1.65.33-.28,3.66-.88,4.26-1.05,1.05-7.27-.73-8.46.33-.58.52.11,4.15-.09,4.15h-28.82v-4.32h24.5c.2,0-.67-3.23.27-4.06,1.39-1.22,5.42,1.7,4.05-4.59Z"/>
      <path class="cls-3" d="M1181.54,631.12c-4.1.59-9.89-.82-13.62-.1-1.73.34.16,4.18-1.58,4.52-4.31.84-11.42-1.05-15.71-.2-1.65.33-.28,3.66-.88,4.26-1.04,1.04-7.44-.71-8.48.31-.65.64,2.03,6.81-6.39,3.95-2.91-.99-.57-5.67-11.76-4.21-3.25.42-2.27,3.47-4.43,4.22-1.64.57-12.27.69-14.17.32-1.65-.33-.27-3.64-.88-4.26-1.1-1.11-11.63.75-14.87-.38-1.96-.69-1.83-3.75-3.34-4.14-4.18-1.08-13.16,3.17-11.97-3.56.22-1.24,23.08-1.23,25.16-.83,1.73.34-.16,4.18,1.58,4.52,2.48.48,20.44.48,22.92,0,1.73-.34-.16-4.18,1.58-4.52,4.32-.84,11.4,1.04,15.71.2,1.73-.34-.16-4.18,1.58-4.52,4.32-.84,11.4,1.04,15.71.2,1.73-.34-.16-4.18,1.58-4.52s17.09-.37,18.59,0c1.85.46-.94,5.71,3.68,4.42v4.32Z"/>
      <path class="cls-3" d="M1181.54,390.49c-5.9-2-6.13,3.97-9.3,4.44-1.43.21-9.01.04-9.34-.29-.61-.61.77-3.93-.88-4.26-2.21-.44-17.8-.44-20.04,0-1.73.34.16,4.18-1.58,4.52-7.56,1.48-19.85-1.28-28.04-.11v-4.31c6.29,2.63,8.46-4.05,9.66-4.36,4.66-1.21,13.08,1.14,18.15-.01.66-.15,10.01-6.97,10.67-7.12,2.14-.46,6.78.56,7.56-.19.59-.56-.79-3.94.87-4.27s12.47-.33,14.05.07c1.31.33,2.9,6.62,8.21,4.35v11.53Z"/>
      <path class="cls-3" d="M0,276.65c8.33-2.72,6.99,4.22,7.99,4.42,2.55.51,11.08-.95,12.09.07.61.62-.76,3.93.88,4.26,2.42.48,20.47.48,22.92,0,1.73-.34-.16-4.18,1.58-4.52,2.55-.5,21.83-.5,24.36,0,1.64.33.27,3.64.88,4.26.72.72,9.74-.03,12.23.16,4.42.35,3.7-.71,3.53,4.33-16.01-.21-40.55-1.97-55.53-.12-3.24.4-2.27,3.48-4.44,4.23-1.9.65-10.47.63-12.85.34-3.24-.4-2.26-3.48-4.44-4.23-2.63-.9-6.34.05-9.19-.22v-12.97Z"/>
      <path class="cls-2" d="M0,550.43c8.97,1.31,22.65-1.75,30.91-.1,1.56.31-2.07,6.55,8.64,4.52,1.74-.33-.15-4.18,1.58-4.52,1.9-.37,13.83-.38,15.71,0,1.65.33.28,3.66.88,4.26.91.91,5.83-.32,7.78.06,1.61.31.24,3.65.87,4.25.88.84,5.2-.55,7.22.78s.82,5.34,1.75,7.65c.73,1.8,9.97,5.27,6.05,9.05-9.59,1.38-8.51-6-11.18-8.26-.85-.72-2.93-.07-3.6-.72-.82-.8,0-3.29-.46-3.77-1.1-1.17-7.37.67-8.42-.39-.6-.6.77-3.93-.88-4.26-1.87-.37-13.85-.37-15.71,0-1.64.33-.27,3.64-.88,4.26-.35.35-7.82.47-9.34.29-3.23-.4-2.27-3.48-4.43-4.23-3.25-1.12-13.77.72-14.87-.38-.61-.61.76-3.94-.88-4.26-2.97-.58-7.46.58-10.74.1v-4.32Z"/>
      <path class="cls-6" d="M1181.54,546.1v4.32c-2.17.47-5.65-1.36-7.19,1.11-.37.6-2.94,5.06-2.94,5.37s2.57,4.77,2.94,5.37c1.54,2.48,5.03.64,7.19,1.11v4.32c-7.75,1.13-19.46-1.52-26.59-.1-1.64.33-.27,3.64-.88,4.26-1,1.02-9.54-.44-12.09.07-1.73.34.15,4.18-1.58,4.52-2.55.5-9.92.14-12.97-.09-4.43-.34-3.71.7-3.53-4.33,3.18.15,9.56.6,12.18.1,1.73-.33-.16-4.18,1.57-4.52,2.35-.46,11.55.75,12.19.11.56-.57-.57-8.1-.01-8.66.64-.64,7.49.87,8.52-.22.46-.48-.36-3,.45-3.78.71-.69,2.99.05,3.7-.64.8-.77-.01-3.3.45-3.78,1.8-1.9,10.5,3.27,8.51-4.55,3.36,0,6.73,0,10.09,0Z"/>
      <path class="cls-3" d="M1181.54,550.43v12.97c-2.17-.47-5.65,1.36-7.19-1.11-.37-.6-2.94-5.06-2.94-5.37s2.57-4.77,2.94-5.37c1.54-2.48,5.03-.64,7.19-1.11Z"/>
      <path class="cls-6" d="M0,491.35c8.32-2.72,7.01,4.23,7.99,4.42,3.75.73,8.97-2.74,7.87,3.5-.2,1.14-10.37,1.06-11.99.7-1.21-.26-.98-3.87-3.87-2.86v-5.76Z"/>
      <path class="cls-3" d="M1181.54,537.46v8.65c-3.36,0-6.73,0-10.09,0-.48,0-.96-.01-1.44,0-.59-3.24,2.76-3.33,3.91-4.83,1.86-2.45-1.68-5.16,7.62-3.82Z"/>
      <path class="cls-3" d="M0,613.83c2.21.41,11.25-.91,11.54.73,1.23,7.01-6.4,1.86-8.56,3.76-.74.66,1.54,5.34-2.97,4.15v-8.65Z"/>
      <path class="cls-6" d="M1181.54,491.35v4.32c-14.59,5.05-16.07-6.51,0-4.32Z"/>
      <path class="cls-6" d="M0,381.84h7.21c1,7.58-.94,5.79-7.21,5.76v-5.76Z"/>
      <path class="cls-5" d="M195.96,243.51c.4-.43-.98-3.94.78-4.42,4.61-1.27,14.8,1.22,20.04.2,1.73-.34-.16-4.18,1.58-4.52,2.81-.55,24.43-.55,27.24,0,1.73.34-.16,4.18,1.58,4.52,4.92.96,14.01-1.48,18.48.13,1.62.58,1.72,2.75,2.87,3.64.84.65,2.89.13,3.47.79.86.97-.35,3.77,1.12,4.09,2.15.46,10.13-.74,10.74-.1v4.31c-6.96-1-17.31,1.36-23.71.11-1.73-.34.16-4.18-1.58-4.52-4.12-.81-40.41-.81-44.53,0-1.73.34.16,4.18-1.58,4.52-3.25.63-29.76.63-33,0-1.73-.34.16-4.18-1.58-4.52-3.18-.62-18.62.9-19.39.09v-4.32c4.89-1.04,36.2,1.37,37.47,0Z"/>
      <path class="cls-5" d="M943.41,223.8c5.93,2.74,6.62,1.13,11.03,2.63,1.93.66,1.82,3.75,3.33,4.14,3.66.95,22.57-1,23.5-.03v4.31c-10.64-1.52-26.82,2.03-36.68.11-1.73-.34.16-4.18-1.58-4.52-2.48-.48-20.44-.48-22.92,0-1.73.34.16,4.18-1.58,4.52-11.39,2.23-30.16-1.85-42.43-.11-.51-3.35,1.32-3.39,3.75-4.23,11.49-3.94,51.72-12.32,63.58-6.83Z"/>
      <path class="cls-6" d="M322.76,412.1c.39-.37-.4-3.98,0-4.33.97-.85,16.07.75,19.39.1,1.73-.34-.16-4.18,1.58-4.52,5.45-1.06,14.62,1.28,20.04.2,1.64-.33.27-3.64.88-4.26.97-.99,8.28.4,10.65-.07,1.73-.34-.16-4.18,1.58-4.52,2.59-.51,21.77-.51,24.36,0,1.73.34-.16,4.18,1.58,4.52,6.21,1.21,16.7-1.41,22.92-.2,1.73.34-.16,4.18,1.58,4.52,5.42,1.06,14.76-1.33,20.03-.2,1.48.32.23,3.27,1.11,4.11.72.69,2.98-.05,3.7.64.88.84-.38,3.79,1.11,4.11,9.3,1.99,26.35-2.1,35.88-.2,1.65.33.27,3.66.88,4.26.88.87,6.58-.25,8.57.17v4.31c-5.75.07-11.55-.07-17.3,0-5.12.07-15.14.93-19.38.1-1.73-.34.16-4.18-1.58-4.52-1.92-.38-13.79-.38-15.71,0-1.73.34.16,4.18-1.58,4.52-2.15.42-16.45.42-18.59,0-1.73-.34.16-4.18-1.58-4.52-4.48-.88-11.6.81-16.51.11v4.31s11.54.01,11.54.01v4.31c-6.96-1-17.31,1.36-23.71.11-1.73-.34.16-4.18-1.58-4.52-6.41-1.25-16.76,1.11-23.71.11v4.31c2.15.24,5.01-.72,6.89.37.36.21,5.85,5.89,4.64,6.83-4.5.69-10.94-.9-15.05-.09-1.73.34.16,4.18-1.58,4.52-8.2,1.6-21.83-1.72-30.24-.13-3.57.67-2.94,3.94-4.57,4.39-7.52,2.06-9.08-6.65-11.54-7.19-2.86-.62-15.31-.58-18.52-.16-2.67.35-1.89,2.69-3.05,2.96-2.74.64-10.94-.76-11.89.2-.61.62.76,3.93-.88,4.26-2.39.47-20.53.48-22.92,0-1.56-.31,2.07-6.55-8.64-4.52-1.74.33.15,4.18-1.58,4.52-4.31.84-11.42-1.05-15.71-.2-1.65.33-.27,3.64-.88,4.26-.37.38-9.27.53-10.65.26-1.73-.34.16-4.18-1.58-4.52-2.34-.46-11.56.75-12.19.09v-4.31c1.13-1.19,10.26,2.64,8.66-2.88-3.88.43-8.56-2.24-12.23-1.52-1.58.31-.19,3.6-.83,4.24-1.01,1-9.54-.44-12.09.06-1.73.34.16,4.18-1.58,4.52-3.89.76-10.31-1.08-14.05-.13-1.59.4-.98,3.71-4.56,4.39-5.52,1.05-16.01-.15-22.38-.04,0,1.44,0,2.88,0,4.32-3.59-.16-7.25.19-10.85.01-2.98-.15-2.61-.84-2.12-3.61.24-1.36,10.62-.69,12.98-.73,0-1.44-.04-2.89,0-4.33.9-.79,13.54.68,16.51.1,1.73-.34-.16-4.18,1.58-4.52,3.87-.76,10.29,1.1,14.01.1,1.21-.33,9.54-11.2,10.75-11.53,3.76-1.01,10.08,1.13,13.91-.22,1.97-.69,1.83-3.75,3.34-4.14,2.95-.77,13.65.99,14.75-.13.52-.53-.33-3.48.18-4,1.03-1.04,7.43.72,8.47-.32.6-.6-.77-3.93.88-4.26,2.81-.56,25.87-.56,28.68,0,1.64.33.27,3.73.86,4.27.81.75,4.29-.3,6.06.16,1.6.41,1.77,2.39,2.51,2.87,4.18,2.74,14.36,1.34,20.17,1.44,1.44.03,2.88-.03,4.32,0,3.51.07,9.36-.7,12.17-.1,1.48.31.23,3.27,1.1,4.11.72.69,2.98-.05,3.7.64.88.84-.37,3.8,1.1,4.11,2.71.58,6.96-.86,9.73-.14,1.5.39,1.38,3.46,3.33,4.14,1.58.55,8.13.66,9.85.31s.28-3.66.88-4.26c1.04-1.04,7.44.71,8.47-.32,1.23-1.24-2.76-6.14,8.74-4.17v-4.31c-.63-.66-9.85.56-12.19.09-1.65-.33-.28-3.66-.88-4.26-1.04-1.04-7.44.71-8.47-.32-.51-.51.34-3.48-.17-4-.9-.9-9.09.28-11.44-.16Z"/>
      <path class="cls-3" d="M149.85,445.24c6.38-.11,16.87,1.08,22.38.04,3.58-.68,2.97-3.99,4.56-4.39,3.74-.95,10.17.9,14.05.13,1.74-.34-.15-4.18,1.58-4.52,2.55-.5,11.09.94,12.09-.06.64-.63-.75-3.93.83-4.24,3.67-.72,8.35,1.95,12.23,1.52,1.6,5.52-7.53,1.69-8.66,2.88v4.31c.62.66,9.85-.55,12.19-.09,1.73.34-.15,4.19,1.58,4.52,1.38.27,10.27.11,10.65-.26.61-.61-.77-3.93.88-4.26,4.29-.85,11.4,1.04,15.71.2,1.73-.34-.16-4.19,1.58-4.52,10.72-2.03,7.08,4.21,8.64,4.52,2.38.48,20.53.47,22.92,0,1.64-.33.27-3.64.88-4.26.95-.96,9.14.44,11.89-.2,1.16-.27.39-2.61,3.05-2.96,3.2-.42,15.65-.46,18.52.16,2.47.54,4.02,9.25,11.54,7.19,1.63-.45,1-3.71,4.57-4.39,8.41-1.59,22.04,1.74,30.24.13,1.73-.34-.16-4.18,1.58-4.52,4.11-.8,10.55.78,15.05.09,1.21-.94-4.28-6.62-4.64-6.83-1.88-1.1-4.73-.14-6.89-.37v-4.31c6.96,1,17.31-1.36,23.72-.11,1.73.34-.16,4.18,1.58,4.52,6.41,1.25,16.76-1.11,23.71-.11v-4.31s-11.54-.01-11.54-.01v-4.31c4.91.71,12.03-.98,16.51-.11,1.73.34-.16,4.18,1.58,4.52,2.15.42,16.45.42,18.59,0,1.73-.34-.16-4.18,1.58-4.52,1.92-.38,13.79-.38,15.71,0,1.73.34-.16,4.18,1.58,4.52,4.25.83,14.26-.03,19.38-.1,1.47,7.41-3.99,2.77-6.91,4.65-4.62,2.98-5.81,2.7-8.63,4.33-.74.43-.78,3.11-2.64,3.77-5.89,2.08-19.93-1.25-26.89.26-1.03.22-4.96,6.42-5.7,6.78-4.2,2.01-12.85-3.17-11.18,4.71-7.02-.09-14.76.55-21.61,0-7.86-.64-2.69-3.94-5.11-4.42-3.69-.74-36.48-.73-40.21,0-1.73.34.15,4.18-1.58,4.52-2.63.52-10.92-.98-12.08.08-.59.53.11,4.15-.1,4.15h-20.17c-.22,0,.86,3.98-.78,4.42-2.29.62-8.95-.16-12.19-.1-4.39.08-12.88.81-16.5.1-1.73-.34.15-4.18-1.58-4.52-4.06-.79-40.51-.8-44.53,0-1.65.33-.28,3.66-.88,4.26-1.04,1.04-7.44-.71-8.47.32-.51.51.34,3.47-.18,4-1.19,1.21-12.12-.75-14.87.07-1.51.45-.61,3.84-2.33,4.42.18-5.04.89-3.98-3.53-4.33-9.46-.74-28.37,1.96-35.81.04-1.52-.39-1.4-3.46-3.34-4.14-2.73-.95-9.64.55-10.55-.38-.6-.61.77-3.94-.87-4.26-3.06-.6-8.52.26-12.18.1,0-1.44,0-2.88,0-4.32Z"/>
      <path class="cls-3" d="M880.39,399.13c7.35-1.07,18.4,1.44,25.15.1,1.65-.33.28-3.66.88-4.26,1.04-1.04,7.43.72,8.47-.32.6-.6-.77-3.93.88-4.26,8.45-1.68,23.12,1.88,31.56.2,1.64-.33.27-3.64.88-4.26.95-.96,9.15.45,11.89-.2,1.19-.28.5-2.93,3.1-3.03,9.33-.35,9.57,7.29,10.23,7.48,1.2.33,14.13.31,15.68,0,1.73-.34-.14-4.17,1.57-4.52,9.52-1.96,11.75,4.22,14.27,4.52,9.15,1.09,21.34-.42,31.06-.1,1.95.06,7.91-.46,8.56.16,1.19,1.16-2.69,6.19,8.74,4.16v4.31c-.63.66-9.85-.56-12.19-.09-1.64.33-.27,3.64-.88,4.26-1,1.02-9.54-.43-12.09.07-1.73.34.15,4.18-1.58,4.52-2.3.45-20.74.47-22.91,0-1.48-.32-.23-3.27-1.11-4.11-.72-.69-2.98.05-3.7-.64-.88-.84.38-3.79-1.11-4.11-2.26-.48-21.95-.46-24.35,0-1.73.34.15,4.18-1.58,4.52-2.37.47-9.68-.92-10.65.07-.61.62.76,3.93-.88,4.26-1.55.31-9.84.31-11.39,0s2.07-6.55-8.64-4.52c-1.74.33.15,4.18-1.58,4.52-2.55.5-11.08-.95-12.09.07-.61.62.77,3.93-.88,4.26-4.07.81-10.58-.76-15.07-.11v-4.31s8.65-.01,8.65-.01c5.59-4.95-18.55-4.86-20.82-4.41-1.73.34.16,4.18-1.58,4.52-3.18.62-15.14-1.07-16.4.08-.59.53.11,4.15-.1,4.15h-20.17v-4.32c6.25,2.65,8.5-4.1,9.66-4.37,1.76-.42,5.27.68,6.11-.11.51-.47-.36-3.35.2-4,.69-.8,3.8.21,4.2-.17Z"/>
      <path class="cls-3" d="M722.19,369.98c1.06.66,8.84.74,10.44.43,1.73-.33-.16-4.19,1.58-4.52,1.57-.3,9.74-.3,11.17.07,1.5.39,1.38,3.46,3.33,4.14,2.72.95,9.65-.55,10.55.37.51.52-.34,3.53.16,4.01.88.86,5.53-.4,7.57.11,1.48.37,1.36,3.46,3.33,4.15,3.52,1.23,9.57-.39,13.51.22,2.32,1.77-.02,2.61-2.13,2.88-4.92.62-10.19-.82-15.32.61-2.75.77-2.55,3.42-3.72,3.68-3.4.74-8.03-.7-11.18-.07-1.73.34.16,4.18-1.58,4.52-2.8.55-33.41.52-35.67-.07-1.47-.38-1.43-2.94-2.43-3.59-1.69-1.1-12.73-1.32-15.08-.86-1.74.34.15,4.18-1.58,4.52-1.6.31-9.79.31-11.39,0-1.73-.34.16-4.18-1.58-4.52-4.72-.92-12.22.88-17.32.21-2.57-.33-1.88-2.59-3.15-2.89-8.1-1.92-16.58-1.57-24.84-1.55-2.38-1.81.14-2.62,2.13-2.88,2.92-.37,14.22.68,15.07-.16.61-.61-.77-3.93.88-4.26,4.94-.98,13.72,1.34,18.38.13,1.51-.39,1.37-3.45,3.34-4.14,3.8-1.33,10.26.65,14.17-.12,1.73-.34-.15-4.18,1.58-4.52,2.99-.58,26.51-.14,28.05.86.92.6,1.06,2.82,1.72,3.22Z"/>
      <path class="cls-6" d="M880.39,399.13c.39-.37-.4-3.98,0-4.33.77-.67,7.58.82,8.57-.16.51-.52-.34-3.47.18-3.99,1.15-1.17,17.18.64,20.74-.07,1.64-.33.27-3.73.86-4.28.83-.77,4.35.32,6.12-.1,1.54-.37,1.37-3.46,3.35-4.15,3.84-1.34,10.21.79,13.95-.18,1.51-.39,1.4-3.49,3.33-4.14,3.37-1.15,11.21.47,14.61-3.46.89-1.03-.28-3.74,1.16-4.05,2.66-.57,28.73-.55,31.55,0,1.65.33.28,3.71.87,4.27.81.78,5.45-.31,7.59.17,1.08.25.87,2.56,1.97,2.83,3.99.96,10.21-1.09,13.97.25,1.62.57,2.47,2.32,8.59,4.33,2.09.69,1.88,3.74,3.39,4.13,2.76.72,7.91-.29,11.32-.04,4.44.33,3.69-.67,3.52,4.33-9.71-.32-21.91,1.19-31.06.1-2.52-.3-4.75-6.48-14.27-4.52-1.71.35.16,4.18-1.57,4.52-1.55.3-14.48.32-15.68,0-.67-.18-.9-7.83-10.23-7.48-2.6.1-1.92,2.75-3.1,3.03-2.74.64-10.94-.77-11.89.2-.61.62.76,3.93-.88,4.26-8.45,1.68-23.11-1.88-31.56-.2-1.65.33-.28,3.66-.88,4.26-1.04,1.04-7.43-.72-8.47.32-.6.6.77,3.93-.88,4.26-6.75,1.34-17.8-1.17-25.15-.1Z"/>
      <path class="cls-3" d="M221.9,466.85c10.19-.57,6.71-3.59,10.76-4.36s9.34.85,12.95.13c1.73-.34-.15-4.18,1.58-4.52,2.81-.55,24.43-.55,27.24,0,1.73.34-.16,4.18,1.58,4.52,4.41.86,28.46-1.16,29.48-.09v4.31s-17.31.01-17.31.01v4.32h30.27c.22,0-.86-3.98.78-4.42,2.16-.58,7.74.22,10.75.1,1.46,7.4-3.96,2.78-6.91,4.65-.72.46-.73,3.11-2.62,3.78-3.24,1.14-13.76-.73-14.87.38-.61.61.76,3.93-.88,4.26-3.06.61-28.47.6-31.56,0-1.73-.34.16-4.18-1.58-4.52-9.35-1.83-25,1.95-34.56.13-3.58-.68-2.98-3.99-4.56-4.39-4.03-1.01-12.19,3.25-10.52-4.29Z"/>
      <path class="cls-3" d="M520.17,306.91c.01,8.67,4.69,2.12,7.12,4.49.6.58-.77,3.93.87,4.26,11.12,2.21,30.48-2.38,41.65-.2,1.73.34-.16,4.18,1.58,4.52,2.15.42,16.45.42,18.59,0,1.73-.34-.16-4.18,1.58-4.52,4.07-.8,15.22-.11,20.12.1,2.22.09,5.7-1.35,5.02,2.14-4.03,4.53-11.67,1.06-16.48,2.08-1.45.31.68,6.34-5.12,4.43-.11,6.26,6.74,3.84,10.84,4.31,2.15.25,4.4,1.14,2.13,2.88-9.11-1.6-19.32,2.84-28.02,1.37-3.83-.65-5.57-3.57-8.76-4.19-2.71-.53-5.99.55-8.32,0-1.47-.36-1.35-3.46-3.33-4.15-3.8-1.33-10.26.65-14.17-.12-1.73-.34.15-4.18-1.58-4.52-7.35-1.44-19.92,1.65-27.24.2-1.65-.33-.28-3.66-.88-4.26-1.04-1.04-7.43.72-8.47-.32-.6-.6.77-3.93-.88-4.26-5.81-1.16-39.41,1.46-40.91-.07-1.25-1.28,2.76-6.12-8.74-4.16v-4.31c6.96,1,17.31-1.36,23.71-.11,1.73.34-.16,4.18,1.58,4.52,8.19,1.6,28.37-.07,38.12-.1Z"/>
      <path class="cls-6" d="M796.82,466.85c-1.95-.06-7.91.46-8.56-.17-.6-.59.77-3.93-.88-4.26-2.33-.47-11.56.76-12.19.09v-4.32h21.62c.21,0-.49-3.63.09-4.15,1.2-1.07,7.43.71,8.46-.33.51-.51-.34-3.49.17-4,1.03-1.04,7.43.72,8.47-.32.6-.6-.77-3.93.88-4.26,1.76-.35,12.52-.35,14.27,0,1.64.33.27,3.64.88,4.26.73.73,11.01-.05,13.67.16,4.42.35,3.71-.71,3.53,4.33-3.59.32-5-1.46-4.34,3.6,6.23-.21,3.67,4.34,4.34,5.04.15.16,4.16.15,4.31,0,2.56-2.54-5.39-3.79,8.65-4.32,1.44-.05,2.88.03,4.32,0,1.66,7.36-5.98,1.29-4.32,8.65-3.6.14-9.24-.71-12.17-.1-1.51.31-.23,3.18-1.08,4.13-.89,1.01-3.75.03-4.04.29-6.48,1.68-3.73-3.86-4.33-4.32-4.34-3.31-4.35,4.2-5.1,4.42-.96.27-8.7.25-9.96,0-1.73-.34.16-4.18-1.58-4.52-5.98-1.17-18.07.33-25.15.1Z"/>
      <path class="cls-6" d="M216.14,462.53c1.72-.58.82-3.97,2.33-4.42,2.75-.82,13.68,1.14,14.87-.07.52-.53-.33-3.48.18-4,1.03-1.04,7.43.72,8.47-.32.6-.6-.77-3.93.88-4.26,4.02-.8,40.47-.79,44.53,0,1.73.34-.16,4.18,1.58,4.52,3.62.71,12.11-.02,16.5-.1-1.89,7.92,7.19,2.86,12.19,4.23,1.65.45.56,4.42.78,4.42h20.17v4.32c-2.86.11-5.77-.11-8.65,0s-8.59-.68-10.75-.1c-1.64.44-.55,4.42-.78,4.42h-30.26v-4.32s17.3-.01,17.3-.01v-4.31c-1.02-1.07-25.07.95-29.48.09-1.73-.34.16-4.18-1.58-4.52-2.81-.55-24.43-.55-27.24,0-1.73.34.15,4.18-1.58,4.52-3.61.71-9.1-.86-12.95-.13-4.04.77-.57,3.79-10.76,4.36-4.29.24-8.68-.15-12.98,0-1.51-7.28,3.4-3.03,7.21-4.32Z"/>
      <path class="cls-3" d="M987.02,449.56c-.66.73-2.08,3.73-1.43,4.32h12.97s0,4.33,0,4.33h-21.61c-.21,0,.49,3.62-.1,4.15-1.24,1.12-11.96-.52-14.96.08-1.65.33-.28,3.66-.88,4.26-1.04,1.04-7.43-.72-8.47.32-.6.6.77,3.93-.88,4.26-6.56,1.3-17.77-1.49-24.36-.2-1.73.34.16,4.18-1.58,4.52-5.26,1.03-13.66-.94-19.39-.1-.03-1.44,0-2.88,0-4.33s-.04-2.89,0-4.33c.78-.69,9.76.58,12.19.1,1.73-.34-.16-4.18,1.58-4.52,6.17-1.21,16.92,1.49,22.91.2,1.48-.32.23-3.26,1.12-4.1.4-.38,7.61-4.59,8.01-4.98.89-.84-.36-3.78,1.12-4.1,8.72-1.87,24.2,1.59,33.78.1Z"/>
      <path class="cls-3" d="M141.12,357.51c.61.61-.77,3.93.88,4.26,2.21.44,17.81.44,20.04,0,1.73-.34-.16-4.18,1.58-4.52s12.46-.35,14.27,0-.15,4.18,1.58,4.52c2.34.46,11.56-.75,12.19-.09v4.31c-.77.81-16.21-.71-19.39-.09-1.73.34.16,4.18-1.58,4.52h-53.18c-.46-7.76-7.67-3.44-13.77-4.43v-4.31c1.99-.42,7.69.7,8.57-.17.6-.6-.77-3.93.88-4.26,2.37-.47,26.96-.73,27.94.26Z"/>
      <path class="cls-6" d="M906.33,471.18l-8.67-3.6c5.88-.14,3.55-3.55,4.69-4.69.71-.71,2.95,0,3.65-.68.81-.78,0-3.28.46-3.77,1.15-1.23,10.18.74,11.3-.39.61-.62-.76-3.93.88-4.26,3.06-.61,15.34,1.03,16.41-.07.52-.53-.33-3.48.18-4,1.03-1.04,7.44.71,8.47-.32.51-.51-.34-3.49.17-4,1.03-1.04,7.43.72,8.47-.32.6-.6-.77-3.93.88-4.26s9.81-.31,11.39,0c1.73.34-.16,4.18,1.58,4.52,3.68.72,22.85-.99,23.71-.09,1.3,5.89-2.43,3.82-2.89,4.32-9.59,1.48-25.06-1.98-33.78-.1-1.48.32-.23,3.26-1.12,4.1-.4.38-7.61,4.59-8.01,4.98-.89.84.36,3.78-1.12,4.1-5.99,1.29-16.74-1.41-22.91-.2-1.73.34.15,4.18-1.58,4.52-2.43.48-11.41-.79-12.19-.1-.03,1.44,0,2.88,0,4.33Z"/>
      <path class="cls-3" d="M322.76,412.1c2.35.44,10.54-.74,11.44.16.51.52-.33,3.48.17,4,1.03,1.04,7.43-.72,8.47.32.6.6-.77,3.93.88,4.26,2.33.46,11.56-.76,12.19-.09v4.31c-11.5-1.97-7.51,2.93-8.74,4.17-1.03,1.04-7.43-.72-8.47.32-.6.59.77,3.93-.88,4.26s-8.27.23-9.85-.31c-1.95-.67-1.83-3.75-3.33-4.14-2.78-.72-7.02.72-9.73.14-1.47-.31-.22-3.27-1.1-4.11-.72-.69-2.98.05-3.7-.64-.88-.84.37-3.8-1.1-4.11-2.81-.59-8.67.17-12.17.1-.18-5.04-.89-3.98,3.53-4.33,5.17-.41,12.88.98,17.29.1,1.63-.32.26-3.51.91-4.25.7-.8,3.8.21,4.2-.17Z"/>
      <path class="cls-3" d="M397.69,449.56c1.95.06,7.91-.46,8.56.17.6.59-.77,3.93.88,4.26,7.25,1.44,20.41-.76,28.82-.1,4.42.35,3.71-.71,3.53,4.33-7.87.66-2.69,3.94-5.11,4.42-6.79,1.35-33.69.54-41.79-.1-4.42-.35-3.71.71-3.53-4.33,4.31-.1,8.67.08,12.98,0,.82-8.13-3.85-.01-4.33-8.64Z"/>
      <path class="cls-6" d="M419.3,445.24c4.27.06,11.55-.8,15.06-.1,1.65.33.28,3.66.88,4.26,1.05,1.05,7.35-.76,8.44.37.47.49-.36,3.08.37,3.86,1.27,1.36,5.5-1.99,4.08,4.57-2.85.2-5.81-.23-8.65,0,.18-5.04.89-3.98-3.53-4.33-8.41-.66-21.57,1.55-28.82.1-1.64-.33-.27-3.67-.88-4.26-.65-.63-6.6-.1-8.56-.17.48,8.63,5.15.51,4.33,8.64-4.31.09-8.67-.09-12.98,0-2.87.06-5.77.03-8.65,0,1.37-6.45-3.3-4.14-8.65-4.32-.18-5.04-.89-3.98,3.53-4.33,6.83-.54,15.45-.22,22.4,0-.08-1.43.05-2.89,0-4.32,6.85.55,14.6-.09,21.61,0Z"/>
      <path class="cls-3" d="M796.82,466.85c7.08.23,19.17-1.27,25.15-.1,1.73.34-.15,4.19,1.58,4.52,1.25.24,8.99.26,9.96,0,.75-.21.76-7.73,5.1-4.42.6.46-2.15,6,4.33,4.32-.33.3.9,3.96-.77,4.42s-29.32.45-31.58,0c-1.64-.33-.27-3.64-.88-4.26-2.08-2.1-15.15,3.87-12.88-4.49Z"/>
      <path class="cls-3" d="M121.04,416.42c1.14.18,5.63,1.73,4.32,4.32-4.91.75-12-.97-16.49-.09-1.73.34.16,4.18-1.58,4.52-1.83.36-13.94.37-15.7,0-1.52-.32-.24-3.22-1.06-4.15-.88-.99-3.69.01-4.06-.27-.17-.13.04-3.23,0-4.32,9.49-.18,26.01-1.37,34.58,0Z"/>
      <path class="cls-6" d="M86.45,416.42c-.05-1.22-.68-4.18.85-4.35,9.87.62,20.44-.74,30.2.02,4.42.35,3.71-.71,3.53,4.33-8.58-1.37-25.09-.18-34.58,0,.04,1.09-.17,4.19,0,4.32-2.36-.42-12.69.92-12.98-.73-.49-2.77-.86-3.46,2.12-3.61,3.6-.18,7.26.08,10.85.01Z"/>
      <path class="cls-3" d="M847.25,453.89c5.22-.46,15.33-1.91,12.97,4.32-14.04.54-6.09,1.78-8.65,4.32-.15.15-4.16.15-4.31,0-.67-.7,1.88-5.25-4.34-5.04-.66-5.05.75-3.28,4.34-3.6Z"/>
      <path class="cls-3" d="M371.75,453.89c5.34.18,10.02-2.12,8.65,4.32-6.71-.07-13.47.06-20.18,0v-4.31c3.83.07,7.71-.14,11.54,0Z"/>
      <path class="cls-6" d="M871.75,458.21c2.62.12,5.28-.08,7.91,0,3.19,6.01-7.6,8.14-12.24,8.65-1.66-7.36,5.98-1.29,4.32-8.65Z"/>
      <path class="cls-3" d="M871.75,458.21c1.66,7.36-5.98,1.29-4.32,8.65-2.26.25-4.85-.09-7.2,0-1.66-7.36,5.98-1.29,4.32-8.65,2.38-.05,4.83-.11,7.2,0Z"/>
      <path class="cls-3" d="M292.5,420.75c-5.81-.1-15.99,1.3-20.17-1.44,6.38.78,14.67-1.78,20.17,1.44Z"/>
      <path class="cls-3" d="M669.72,631.45c.66.41.8,2.62,1.72,3.22,3.72,2.41,24.56-.11,31.08.66,1.81.21,8.58,7.8,15.05,4.43.17,6.93-9.54-1.69-9.43,7.3h-53.18c.21-6.16-7.82-5.17-13.14-4.52s-4.23,4-5.95,4.45c-2.58.68-22.18.51-25.71.09-3.31-.4-1.91-3.78-5.66-4.48-3.42-.64-16.95.86-18.05.03-1.39-6.02,11.06-1.22,12.87-3.04.61-.61-.77-3.93.88-4.26,4.93-.98,13.95,1.47,18.49-.12,1.96-.69,1.83-3.75,3.34-4.14,2.96-.77,45.66-.89,47.68.37Z"/>
      <path class="cls-3" d="M86.36,631.28c.89.9-2.68,6.3,7.95,4.26,1.56-.3-2.07-6.55,8.65-4.52,1.74.33-.15,4.18,1.58,4.52,4.75.93,12.02-1.01,17.16-.04,3.02.57,4.74,3.31,7.56,3.97,4.5,1.04,9.68-.28,14.14.29,2.62.33,2.34-.48,2.13,2.88-7.92,2.21-21.02-.13-27.83,1.48-1.17.28-.39,2.61-3.06,2.96-3.08.4-20.56.52-22.87-.08-1.47-.38-1.43-2.94-2.43-3.59-3.49-2.26-21.39-.52-26.27.8-1.2.32-.67,2.54-3.2,2.86-5.91.76-13.4-.75-19.55-.11v-4.31c7.74,2.98,9.21-3.66,10.99-4.22,2.35-.74,4.86,1.14,7.02,1.04,2.21-.1,10.69-2.97,11.89-4.4.89-1.06-.27-3.74,1.16-4.05,1.51-.33,14.43-.26,14.96.27Z"/>
      <path class="cls-3" d="M906.33,651.29v-4.32c.73-.77,12.07.76,14.81,0,.48-.13,7.51-6.66,4.63-7.23h-6.49s0-4.31,0-4.31c13.82,1.3,30.6-1.74,44.03-.11,2.81.34,2.01,2.68,3.87,3.47,3.79,1.61,20.9-2.24,22.7-.48.87.84-.63,5.76-2.15,5.76h-30.98v2.87c1.36,1.21,14.02-2.82,12.97,4.33h-63.4Z"/>
      <path class="cls-6" d="M662.82,471.18c.24,4.82-6.07,2.98-4.33,8.64,3.59.13,7.23-.15,10.83,0,2.22.09,5.7-1.35,5.01,2.14-1.66,2.34-4.43,1.78-6.7,2.72-.47.2-.54,2.09-1.49,2.3-4.24.95-11.99-2.43-11.96,4.36,4.57-.31,4.83-.48,4.33,4.33h-25.94c-.19,0,.1-2.36-1.46-3.52-4.68-3.47-17.67-2.8-18.7-12.32.75-.64,9.7.52,12.29.03,3.57-.68,2.97-3.99,4.56-4.39,3.11-.79,8.4.89,11.18.13,1.64-.45.55-4.42.78-4.42h21.61Z"/>
      <path class="cls-6" d="M704.21,572.49c.68.29.67,2.7,5.77,3.48s11.34-.52,15.44.29c1.73.34-.15,4.18,1.58,4.52,2.16.42,10.16-.71,10.75-.09v4.31c-5.51-.7-12.9,1-18.07.04-3.75-.7-2.35-4.08-5.66-4.48-5.35-.64-34.15,1.4-35.37.12v-4.31c6.3,2.63,8.46-4.05,9.66-4.36,1.96-.51,14.1-.29,15.89.49Z"/>
      <path class="cls-2" d="M1170.02,546.1c.48-.01.96,0,1.44,0,1.99,7.82-6.71,2.65-8.51,4.55-.46.48.36,3-.45,3.78-.71.69-2.99-.05-3.7.64-.8.77.01,3.29-.45,3.78-1.03,1.09-7.87-.43-8.52.22-.56.56.57,8.09.01,8.66-.63.64-9.84-.57-12.19-.11-1.73.34.15,4.19-1.57,4.52-2.62.5-9.01.06-12.18-.1-5.07-.25-8.37,1.98-7.21-4.32.59-.62,8.59.51,10.75.09,1.73-.34-.16-4.18,1.58-4.52,3.14-.62,8.63.96,11.4.2,1.68-.46.44-4.12.77-4.42.29-.26,3.15.72,4.04-.29s-.42-3.83,1.07-4.14c1.98-.4,6.75.91,7.72-.12.45-.48-.36-3.01.44-3.78.71-.69,2.98.05,3.7-.64.88-.84-.37-3.8,1.1-4.11,2.57-.54,7.55.2,10.73.1Z"/>
      <path class="cls-2" d="M570.9,554.41c2.51,1.55,11.16-.48,14.76.24,1.65.33.27,3.66.88,4.26.88.87,6.58-.25,8.57.17v4.31c-.71.74-13.75-.63-16.51-.09-1.73.34.16,4.18-1.58,4.52-3.93.77-10.45-1.02-14.26-.2-1.49.32-.23,3.27-1.11,4.11-.72.69-2.98-.05-3.7.64-.88.84.38,3.79-1.11,4.11s-9.86.29-11.38,0c-1.73-.34.16-4.18-1.58-4.52-1.91-.37-16.75-.36-18.38.07-1.75.46-.52,4.07-6.01,4.44-6.37.43-2.23-4.07-4.44-4.51-3.34-.66-20.03.93-20.83.09v-4.31c6.26,2.64,8.5-4.07,9.65-4.36,2.75-.69,6.79.77,9.53.07,1.48-.37,1.36-3.45,3.33-4.14,3.81-1.33,10.26.65,14.17-.12,1.73-.34-.16-4.19,1.58-4.52,10.71-2.03,7.08,4.22,8.65,4.52,10.63,2.05,7.07-3.39,7.94-4.26,1.04-1.04,7.43.72,8.47-.32.6-.59-.77-3.93.88-4.26s8.28-.23,9.85.31c1.88.65,1.91,3.33,2.63,3.77Z"/>
      <path class="cls-2" d="M641.11,517.45c.61.61-.77,3.93.88,4.26,4.29.85,11.4-1.04,15.71-.2,1.73.34-.16,4.18,1.58,4.52,3.35.66,8.49-.67,12.17-.09.5,6.29-21.44,5.14-25.14,4.41-1.73-.34.16-4.19-1.58-4.52-10.72-2.03-7.08,4.21-8.64,4.52-2.42.48-20.48.48-22.92,0-1.73-.34.16-4.18-1.58-4.52-4.41-.86-28.46,1.16-29.48.09v-4.31c.62-.66,9.85.55,12.19.09,1.73-.34-.16-4.18,1.58-4.52,3.43-.67,43.64-1.34,45.23.26Z"/>
      <path class="cls-2" d="M443.8,580.69c-1.92-11.04,2.45-7.31,4.05-8.92.84-.84-.44-3.84,1.07-4.15,2.31-.49,21.93-.47,24.35,0,1.73.34-.15,4.18,1.58,4.52,2.16.42,10.16-.71,10.75-.09v4.31c-7.7-2.64-8.1,4.33-8.65,4.33h-33.14Z"/>
      <rect class="cls-6" x="61.96" y="394.81" width="24.5" height="4.32"/>
    </g>
  </g>
</svg>